<svg xmlns="http://www.w3.org/2000/svg" version="1.1" xmlns:xlink="http://www.w3.org/1999/xlink" xmlns:svgjs="http://svgjs.com/svgjs" width="52" height="52"><svg width="52" height="52" viewBox="0 0 52 52" fill="none" xmlns="http://www.w3.org/2000/svg">
<path d="M26 0C11.66 0 0 11.66 0 26C0 40.34 11.66 52 26 52C31.8 52 37.16 50.0794 41.5 46.8594C41.44 46.8194 41.3617 46.7788 41.2617 46.7188C39.0217 45.0388 35.7417 43.7614 32.2617 42.4414C23.5217 39.0414 14 35.22 14 24C14 13.52 23.6005 8.00002 36.9805 8.00002C38.9205 8.00002 40.8998 8.11892 42.8398 8.37892C43.1198 8.41892 43.1419 8.42096 43.4219 8.46096C44.1619 8.62096 44.9011 8.78096 45.6211 8.96096C40.8611 3.48096 33.82 0 26 0ZM36.5 18C27.62 18 28 23.8795 28 24.0195C28 28.8195 33.4984 30.9991 39.8984 33.5391C42.9984 34.7791 46.2192 36.0383 49.1992 37.7383C50.9792 34.2183 52 30.22 52 26C52 25.64 52.0009 25.2819 51.9609 24.9219C51.9009 24.8819 51.8217 24.8413 51.7617 24.7813C46.2817 19.9613 41.88 18 36.5 18Z" fill="#6C60F4"></path>
</svg><style>@media (prefers-color-scheme: light) { :root { filter: none; } }
</style></svg>