<svg width="500" height="374" viewBox="0 0 500 374" fill="none" xmlns="http://www.w3.org/2000/svg">
    <path d="M500 328.398H0V328.648H500V328.398Z" fill="#EBEBEB"/>
    <path d="M449.901 344.494H428.222V344.744H449.901V344.494Z" fill="#EBEBEB"/>
    <path d="M344.667 339.306H310.558V339.556H344.667V339.306Z" fill="#EBEBEB"/>
    <path d="M441.111 335.208H396.586V335.458H441.111V335.208Z" fill="#EBEBEB"/>
    <path d="M173.015 340.25H161.877V340.5H173.015V340.25Z" fill="#EBEBEB"/>
    <path d="M152.974 340.25H114.585V340.5H152.974V340.25Z" fill="#EBEBEB"/>
    <path d="M94.002 336.028H66.307V336.278H94.002V336.028Z" fill="#EBEBEB"/>
    <path d="M237.014 283.8H43.915C40.768 283.8 38.207 281.239 38.207 278.092V6.6599C38.207 3.5129 40.768 0.951904 43.915 0.951904H237.014C240.16 0.951904 242.721 3.5129 242.721 6.6599V278.092C242.721 281.239 240.16 283.8 237.014 283.8ZM43.915 1.2029C40.905 1.2029 38.457 3.6509 38.457 6.6609V278.093C38.457 281.103 40.905 283.551 43.915 283.551H237.014C240.023 283.551 242.471 281.103 242.471 278.093V6.6599C242.471 3.6509 240.023 1.2019 237.014 1.2019L43.915 1.2029Z"
          fill="#EBEBEB"/>
    <path d="M453.31 283.8H260.212C257.065 283.8 254.505 281.239 254.505 278.092V6.6599C254.505 3.5129 257.066 0.951904 260.212 0.951904H453.31C456.458 0.951904 459.018 3.5129 459.018 6.6599V278.092C459.019 281.239 456.458 283.8 453.31 283.8ZM260.212 1.2029C257.203 1.2029 254.755 3.6509 254.755 6.6609V278.093C254.755 281.103 257.203 283.551 260.212 283.551H453.31C456.32 283.551 458.768 281.103 458.768 278.093V6.6599C458.768 3.6509 456.32 1.2019 453.31 1.2019L260.212 1.2029Z"
          fill="#EBEBEB"/>
    <path d="M216.072 146.878L216.522 133.737L208.454 131.101C208.122 126.611 207.371 122.177 206.303 117.905L213.141 112.863L208.496 100.52L200.038 101.201C198.022 97.2099 195.653 93.4128 192.998 89.8508L197.379 82.5378L188.371 72.9268L180.809 76.7988C177.403 73.9038 173.813 71.2828 169.97 68.9648L171.195 60.5708L159.197 55.1258L153.7 61.5678C149.512 60.2088 145.173 59.1928 140.684 58.5188L138.64 50.2908L125.464 49.8398L122.862 57.9088C118.337 58.2738 113.938 58.9908 109.667 60.0598L104.589 53.2548L92.247 57.8658L92.929 66.3248C88.937 68.3748 85.141 70.7428 81.579 73.3988L74.301 69.0188L64.655 77.9908L68.526 85.5869C65.633 88.9589 63.01 92.5848 60.725 96.4288L52.333 95.1698L46.854 107.166L53.33 112.664C51.972 116.853 50.919 121.226 50.281 125.682L42.017 127.758L41.567 140.899L49.669 143.538C50 148.061 50.752 152.462 51.821 156.732L44.984 161.774L49.629 174.118L58.087 173.435C60.103 177.426 62.472 181.223 65.127 184.785L60.745 192.098L69.754 201.71L77.315 197.837C80.687 200.731 84.312 203.355 88.155 205.673L86.895 214.064L98.893 219.509L104.425 213.068C108.613 214.427 112.952 215.443 117.442 216.117L119.486 224.345L132.662 224.796L135.265 216.727C139.789 216.362 144.188 215.645 148.459 214.576L153.502 221.379L165.844 216.768L165.196 208.312C169.189 206.262 172.95 203.891 176.546 201.236L183.825 205.618L193.47 196.645L189.6 189.049C192.493 185.677 195.116 182.051 197.401 178.207L205.793 179.467L211.272 167.47L204.795 161.972C206.154 157.784 207.205 153.446 207.844 148.956L216.072 146.878ZM127.276 189.449C98.498 188.463 75.963 164.329 76.949 135.55C77.936 106.737 102.07 84.2038 130.848 85.1898C159.626 86.1758 182.161 110.308 181.174 139.121C180.188 167.9 156.054 190.435 127.276 189.449Z"
          fill="#EBEBEB"/>
    <path d="M440.957 103.423L444.271 100.328L442.947 97.7179C443.961 96.5419 444.859 95.2779 445.64 93.9759L448.537 94.4139L450.414 90.2719L448.185 88.3759C448.667 86.9109 449.015 85.4079 449.236 83.8919L452.088 83.1769L452.235 78.6369L449.447 77.7369C449.322 76.2009 449.086 74.6859 448.714 73.1839L451.06 71.4359L449.462 67.1829L446.551 67.4129C445.861 66.0599 445.051 64.7539 444.121 63.4959L445.629 60.9909L442.526 57.6679L439.923 58.9999C438.73 57.9849 437.483 57.0879 436.181 56.3069L436.602 53.4089L432.468 51.5239L430.572 53.7529C429.099 53.2789 427.596 52.9309 426.079 52.7099L425.372 49.8669L420.832 49.7029L419.924 52.4989C418.396 52.6159 416.873 52.8599 415.378 53.2409L413.639 50.8879L409.378 52.4769L409.616 55.3969C408.263 56.0869 406.94 56.8969 405.698 57.8279L403.177 56.3189L399.863 59.4139L401.195 62.0329C400.173 63.2169 399.283 64.4729 398.502 65.7749L395.605 65.3369L393.727 69.4799L395.956 71.3759C395.474 72.8409 395.126 74.3439 394.905 75.8599L392.053 76.5749L391.906 81.1159L394.694 82.0149C394.811 83.5429 395.055 85.0669 395.426 86.5689L393.073 88.3079L394.671 92.5609L397.591 92.3389C398.281 93.6919 399.091 94.9969 400.022 96.2569L398.514 98.7619L401.617 102.085L404.219 100.752C405.411 101.766 406.659 102.664 407.961 103.445L407.532 106.334L411.666 108.219L413.57 105.999C415.044 106.473 416.539 106.812 418.063 107.041L418.77 109.884L423.31 110.048L424.218 107.252C425.746 107.135 427.269 106.891 428.764 106.51L430.503 108.864L434.765 107.275L434.526 104.355C435.878 103.665 437.193 102.864 438.444 101.925L440.957 103.423ZM417.341 84.2919C414.903 81.6809 415.043 77.5859 417.654 75.1479C420.268 72.7069 424.363 72.8469 426.801 75.4589C429.239 78.0699 429.099 82.1649 426.485 84.6059C423.874 87.0439 419.779 86.9029 417.341 84.2919Z"
          fill="#EBEBEB"/>
    <path d="M319.989 238.336L309.648 231.194C309.645 231.186 309.645 231.177 309.642 231.169C308.619 227.412 307.208 223.796 305.483 220.397L308.132 209.999L293.132 193.934L282.573 195.867C279.303 193.916 275.794 192.262 272.119 190.985C272.111 190.983 272.101 190.981 272.093 190.977L265.673 180.167L243.708 179.414L236.566 189.755C236.553 189.758 236.539 189.762 236.525 189.765C232.772 190.788 229.159 192.196 225.765 193.919L215.372 191.27L199.308 206.271L201.237 216.809C201.235 216.813 201.233 216.814 201.231 216.818C199.239 220.125 197.623 223.635 196.346 227.312L185.538 233.729L184.785 255.695L195.135 262.843C196.157 266.626 197.524 270.234 199.282 273.661C199.283 273.663 199.283 273.663 199.284 273.665L196.642 284.031L211.642 300.094L222.135 298.174C225.447 300.132 228.961 301.788 232.681 303.067C232.684 303.069 232.686 303.069 232.69 303.069L239.099 313.863L261.064 314.616L268.201 304.282C271.998 303.261 275.616 301.851 279.052 300.124C279.052 300.124 279.054 300.124 279.055 300.122L289.401 302.758L305.465 287.759L303.536 277.219C305.528 273.912 307.144 270.4 308.421 266.723L308.422 266.721L319.234 260.3L319.989 238.336ZM251.537 271.726C237.883 271.258 227.217 259.795 227.683 246.18C228.151 232.526 239.575 221.859 253.229 222.326C266.883 222.794 277.55 234.218 277.083 247.872C276.617 261.487 265.191 272.194 251.537 271.726Z"
          fill="#EBEBEB"/>
    <path d="M343.548 175.954C343.524 175.954 343.5 175.954 343.476 175.953L326.159 175.36C325.44 175.336 324.783 174.946 324.416 174.328L319.753 166.476C317.274 165.577 314.831 164.443 312.47 163.098L304.963 164.471C304.255 164.605 303.531 164.362 303.04 163.835L291.214 151.172C290.723 150.646 290.534 149.906 290.711 149.209L292.599 141.799C291.452 139.452 290.492 136.945 289.74 134.329L282.209 129.128C281.617 128.72 281.274 128.037 281.298 127.319L281.891 110.002C281.915 109.283 282.305 108.626 282.923 108.259L290.789 103.588C291.722 101.034 292.853 98.6029 294.159 96.3399L292.78 88.8069C292.651 88.0999 292.89 87.3739 293.416 86.8839L306.081 75.0569C306.607 74.5649 307.347 74.3769 308.044 74.5539L315.479 76.4489C317.884 75.2789 320.383 74.3149 322.928 73.5779L328.125 66.0529C328.533 65.4609 329.204 65.0949 329.935 65.1429L347.252 65.7369C347.971 65.7609 348.628 66.1499 348.995 66.7689L353.667 74.6349C356.149 75.5439 358.573 76.6749 360.894 78.0069L368.448 76.6229C369.157 76.4939 369.881 76.7329 370.372 77.2589L382.198 89.9249C382.689 90.4509 382.878 91.1909 382.701 91.8879L380.805 99.3259C381.976 101.732 382.939 104.23 383.677 106.772L391.202 111.968C391.794 112.376 392.137 113.059 392.113 113.778L391.52 131.096C391.496 131.815 391.106 132.472 390.488 132.839L382.619 137.512C381.686 140.065 380.557 142.495 379.253 144.755L380.632 152.291C380.761 152.998 380.522 153.724 379.996 154.214L367.331 166.038C366.806 166.53 366.067 166.72 365.369 166.541L357.968 164.655C355.529 165.833 353.016 166.796 350.48 167.525L345.288 175.044C344.891 175.614 344.241 175.954 343.548 175.954ZM327.457 171.179L342.466 171.694L347.437 164.496C347.721 164.085 348.143 163.787 348.626 163.657C351.391 162.914 354.134 161.862 356.781 160.531C356.786 160.529 356.79 160.527 356.795 160.524C357.236 160.307 357.75 160.24 358.253 160.371L365.291 162.164L376.268 151.915L374.955 144.741C374.862 144.235 374.958 143.713 375.223 143.271C376.671 140.868 377.899 138.232 378.873 135.437C379.033 134.941 379.372 134.524 379.814 134.264L387.337 129.796L387.851 114.786L380.648 109.811C380.271 109.551 379.989 109.175 379.844 108.742C379.826 108.688 379.81 108.631 379.796 108.573C379.043 105.815 377.995 103.105 376.682 100.518C376.45 100.061 376.393 99.5359 376.518 99.0399L378.322 91.9619L368.072 80.9829L360.883 82.2989C360.379 82.3919 359.86 82.2969 359.421 82.0349C356.921 80.5429 354.281 79.3099 351.575 78.3689C351.422 78.3159 351.267 78.2449 351.134 78.1639C350.842 77.9839 350.599 77.7369 350.425 77.4429L345.953 69.9139L330.944 69.3989L325.969 76.6029C325.673 77.0319 325.23 77.3339 324.726 77.4549C321.949 78.2159 319.248 79.2599 316.672 80.5669C316.215 80.7989 315.689 80.8569 315.195 80.7299L308.12 78.9259L297.143 89.1769L298.456 96.3499C298.539 96.7999 298.472 97.2649 298.268 97.6739C298.239 97.7319 298.207 97.7879 298.173 97.8439C296.722 100.256 295.492 102.9 294.519 105.703C294.355 106.173 294.031 106.571 293.603 106.825L286.075 111.296L285.561 126.305L292.771 131.285C293.182 131.568 293.479 131.989 293.61 132.471C294.387 135.347 295.433 138.078 296.72 140.588C296.794 140.732 296.852 140.884 296.891 141.042C296.976 141.381 296.975 141.736 296.889 142.075L295.091 149.129L305.341 160.105L312.479 158.799C312.98 158.708 313.496 158.801 313.933 159.059C316.478 160.564 319.131 161.796 321.821 162.724C322.307 162.878 322.728 163.207 322.995 163.658L327.457 171.179ZM336.728 152.214C336.358 152.214 335.989 152.207 335.617 152.194C318.171 151.596 304.464 136.917 305.062 119.471C305.66 102.026 320.363 88.3229 337.785 88.9149C355.231 89.5129 368.938 104.192 368.34 121.639C368.051 130.079 364.49 137.908 358.314 143.681C352.403 149.207 344.774 152.214 336.728 152.214ZM336.69 93.1199C321.992 93.1199 309.79 104.815 309.283 119.616C308.765 134.734 320.643 147.455 335.762 147.973C343.088 148.218 350.073 145.605 355.431 140.596C360.784 135.592 363.87 128.808 364.12 121.494C364.638 106.376 352.759 93.6539 337.641 93.1359C337.323 93.1259 337.005 93.1199 336.69 93.1199Z"
          fill="#EBEBEB"/>
    <path d="M383.439 51.3228L376.265 49.3968L374.339 42.2238L377.148 39.4148L380.111 45.5508L386.247 48.5148L383.439 51.3228Z"
          fill="#E0E0E0"/>
    <path d="M383.884 46.5208C385.191 45.2138 385.191 43.0838 383.884 41.7768C382.577 40.4698 380.457 40.4798 379.15 41.7868L382.718 36.4338L387.504 38.8528L388.553 43.8818L383.884 46.5208Z"
          fill="#E0E0E0"/>
    <path d="M376.582 39.9809L381.839 34.7239L389.012 36.6499L390.939 43.8239L385.682 49.0809L378.508 47.1539L376.582 39.9809ZM386.127 44.2789C387.434 42.9719 387.434 40.8419 386.127 39.5349C384.82 38.2279 382.7 38.2379 381.393 39.5449C380.086 40.8519 380.086 42.9629 381.393 44.2689C382.7 45.5759 384.82 45.5859 386.127 44.2789Z"
          fill="#F0F0F0"/>
    <path d="M90.221 242.708L94.07 241.674L95.104 237.825L93.597 236.318L92.007 239.611L88.714 241.201L90.221 242.708Z"
          fill="#E0E0E0"/>
    <path d="M89.9821 240.131C89.2811 239.43 89.2811 238.287 89.9821 237.585C90.6831 236.884 91.8211 236.889 92.5221 237.59L90.6071 234.717L88.0391 236.015L87.4761 238.713L89.9821 240.131Z"
          fill="#E0E0E0"/>
    <path d="M93.901 236.622L91.08 233.801L87.231 234.835L86.197 238.685L89.018 241.506L92.867 240.472L93.901 236.622ZM88.778 238.928C88.077 238.227 88.077 237.084 88.778 236.382C89.479 235.681 90.617 235.686 91.318 236.387C92.019 237.088 92.019 238.221 91.318 238.922C90.618 239.624 89.48 239.629 88.778 238.928Z"
          fill="#F0F0F0"/>
    <path d="M76.363 31.6619L79.558 34.8569C80.39 35.6889 81.751 35.6889 82.583 34.8569C83.415 34.0249 83.415 32.6639 82.583 31.8319L79.388 28.6369C78.556 27.8049 77.195 27.8049 76.363 28.6369C75.531 29.4689 75.531 30.8309 76.363 31.6619Z"
          fill="#F0F0F0"/>
    <path d="M74.112 23.705C76.574 22.821 79.243 23.977 80.073 26.288C80.903 28.599 79.58 31.189 77.118 32.074C74.656 32.958 71.987 31.802 71.157 29.491C70.327 27.18 71.65 24.59 74.112 23.705Z"
          fill="#E0E0E0"/>
    <path d="M70.6304 28.9578L71.0935 30.2471L80.6005 26.8326L80.1374 25.5433L70.6304 28.9578Z" fill="#F0F0F0"/>
    <path d="M250 373.561C357.082 373.561 443.889 368.492 443.889 362.238C443.889 355.985 357.082 350.915 250 350.915C142.918 350.915 56.111 355.985 56.111 362.238C56.111 368.492 142.918 373.561 250 373.561Z"
          fill="#F5F5F5"/>
    <path d="M86.716 66.6459C85.715 62.2429 86.162 58.5359 88.058 55.5229C89.954 52.5119 93.092 50.5089 97.471 49.5129C101.961 48.4919 105.694 48.9109 108.671 50.7699C111.648 52.6279 113.63 55.7279 114.617 60.0709C115.334 63.2239 115.391 65.9299 114.789 68.1889C114.186 70.4489 113.01 72.3679 111.26 73.9459C109.509 75.5249 107.137 76.6529 104.144 77.3339C101.102 78.0259 98.474 78.1139 96.26 77.5989C94.046 77.0829 92.081 75.9169 90.365 74.0999C88.649 72.2839 87.432 69.7999 86.716 66.6459ZM95.06 64.7889C95.679 67.5129 96.63 69.3539 97.913 70.3129C99.195 71.2739 100.707 71.5539 102.45 71.1579C104.241 70.7519 105.495 69.8539 106.211 68.4659C106.927 67.0779 106.943 64.8739 106.256 61.8569C105.679 59.3179 104.745 57.5789 103.454 56.6389C102.163 55.7009 100.641 55.4309 98.887 55.8299C97.206 56.2119 95.992 57.1139 95.244 58.5349C94.496 59.9569 94.435 62.0409 95.06 64.7889Z"
          fill="#263238"/>
    <path d="M118.593 63.3469C117.915 60.3669 118.363 57.6809 119.936 55.2909C121.508 52.9009 124.006 51.3169 127.429 50.5399C131.342 49.6499 134.556 50.1119 137.072 51.9279C139.094 53.3909 140.41 55.4589 141.018 58.1329C141.701 61.1399 141.265 63.8279 139.707 66.2009C138.15 68.5739 135.611 70.1609 132.09 70.9609C128.95 71.6749 126.229 71.4559 123.928 70.3009C121.099 68.8679 119.321 66.5499 118.593 63.3469ZM126.097 61.6229C126.493 63.3639 127.138 64.5719 128.034 65.2469C128.929 65.9209 129.91 66.1359 130.977 65.8929C132.056 65.6469 132.849 65.0349 133.355 64.0549C133.861 63.0759 133.908 61.6779 133.496 59.8639C133.111 58.1709 132.475 56.9889 131.587 56.3199C130.699 55.6509 129.74 55.4329 128.71 55.6679C127.618 55.9159 126.812 56.5419 126.292 57.5439C125.771 58.5449 125.706 59.9049 126.097 61.6229Z"
          fill="#263238"/>
    <path d="M148.585 74.5659L142.452 47.5889L149.463 45.9939L150.12 48.8829C150.813 47.4489 151.515 46.4259 152.227 45.8119C153.188 44.9879 154.331 44.4239 155.656 44.1239C158.269 43.5289 160.517 44.0699 162.401 45.7439C164.285 47.4189 165.562 49.7279 166.231 52.6729C166.97 55.9239 166.755 58.5819 165.586 60.6479C164.417 62.7129 162.643 64.0169 160.263 64.5579C159.11 64.8199 158.014 64.8629 156.973 64.6859C155.933 64.5089 154.951 64.1209 154.027 63.5179L156.148 72.8469L148.585 74.5659ZM152.194 55.7089C152.545 57.2549 153.131 58.3279 153.951 58.9289C154.771 59.5299 155.678 59.7159 156.672 59.4909C157.543 59.2929 158.192 58.7679 158.617 57.9169C159.042 57.0649 159.06 55.7809 158.67 54.0629C158.31 52.4799 157.739 51.3879 156.957 50.7859C156.175 50.1819 155.342 49.9819 154.459 50.1819C153.503 50.3999 152.79 50.9559 152.322 51.8479C151.854 52.7419 151.811 54.0279 152.194 55.7089Z"
          fill="#263238"/>
    <path d="M169.435 56.299L176.71 53.909C177.217 54.722 177.791 55.257 178.429 55.513C179.067 55.767 179.847 55.79 180.767 55.581C181.772 55.352 182.503 54.961 182.958 54.406C183.315 53.99 183.439 53.544 183.33 53.065C183.208 52.526 182.831 52.173 182.2 52.008C181.748 51.892 180.616 51.879 178.805 51.968C176.101 52.107 174.2 52.097 173.099 51.942C171.999 51.785 170.998 51.327 170.096 50.565C169.194 49.804 168.609 48.834 168.342 47.658C168.05 46.371 168.172 45.178 168.708 44.076C169.245 42.974 170.117 42.044 171.325 41.286C172.533 40.528 174.241 39.898 176.449 39.396C178.78 38.866 180.541 38.654 181.732 38.756C182.923 38.86 183.975 39.201 184.887 39.78C185.8 40.36 186.646 41.231 187.426 42.396L180.482 44.71C180.156 44.125 179.745 43.735 179.249 43.539C178.57 43.279 177.814 43.244 176.98 43.435C176.133 43.627 175.551 43.917 175.233 44.305C174.915 44.693 174.804 45.102 174.902 45.531C175.01 46.009 175.338 46.314 175.884 46.447C176.43 46.582 177.548 46.558 179.236 46.381C181.79 46.098 183.732 46.068 185.061 46.295C186.39 46.521 187.482 47.027 188.338 47.812C189.193 48.597 189.748 49.547 190.002 50.663C190.258 51.791 190.167 52.965 189.729 54.185C189.29 55.406 188.41 56.498 187.087 57.463C185.765 58.426 183.84 59.196 181.313 59.772C177.743 60.584 175.084 60.651 173.338 59.978C171.592 59.304 170.291 58.078 169.435 56.299Z"
          fill="#263238"/>
    <path d="M193.849 31.566L202.057 31.52L202.093 37.823L200.579 50.494L195.503 50.522L193.884 37.869L193.849 31.566ZM194.25 52.454L201.911 52.411L201.95 59.185L194.289 59.228L194.25 52.454Z"
          fill="#263238"/>
    <path d="M128.68 117.581C128.62 117.581 128.559 117.57 128.499 117.547C123.998 115.804 121.305 114.101 119.907 112.055C118.891 112.259 117.754 112.124 116.675 111.611C115.627 111.113 114.618 110.242 113.894 108.989C113.219 109.51 112.385 109.652 111.469 109.364C110.453 109.045 109.396 108.189 108.517 106.953C107.958 107.357 107.385 107.418 106.965 107.383C103.992 107.141 99.964 101.223 99.675 94.9159C99.662 94.6409 99.876 94.4059 100.152 94.3949C100.422 94.3719 100.662 94.5949 100.674 94.8719C100.948 100.857 104.783 106.203 107.047 106.387C107.414 106.423 107.721 106.308 107.979 106.108C106.621 103.725 105.916 100.327 106.956 96.6959C107.816 93.6909 108.576 92.5159 109.488 92.7339C111.211 93.1629 110.985 99.7059 110.072 104.022C109.865 105.001 109.567 105.703 109.227 106.205C110.016 107.37 110.951 108.154 111.77 108.412C112.502 108.642 113.044 108.447 113.444 108.066C112.658 106.13 112.495 103.492 113.562 100.127C114.966 95.6979 115.531 95.5779 115.869 95.5069C116.107 95.4559 116.345 95.5349 116.514 95.7269C117.438 96.7699 116.334 103.649 115.17 107.051C115.019 107.493 114.831 107.88 114.613 108.208C115.234 109.425 116.149 110.254 117.106 110.709C117.874 111.074 118.662 111.207 119.379 111.14C119.289 110.951 119.208 110.759 119.135 110.564C118.342 108.417 118.73 105.938 120.32 102.986C121.375 101.028 122.235 100.115 123.027 100.114C123.262 100.114 123.703 100.201 124.014 100.776C124.886 102.385 124.255 107.695 122.531 110.33C122.125 110.951 121.564 111.422 120.913 111.728C122.253 113.49 124.797 115.042 128.862 116.618C129.119 116.718 129.247 117.007 129.148 117.264C129.07 117.46 128.88 117.581 128.68 117.581ZM123.026 101.111C123.023 101.111 122.461 101.115 121.199 103.458C119.753 106.143 119.384 108.353 120.072 110.215C120.156 110.443 120.256 110.665 120.372 110.885C120.906 110.656 121.363 110.284 121.693 109.781C123.093 107.64 123.764 103.243 123.243 101.524C123.136 101.172 123.027 101.111 123.026 101.111ZM115.854 96.8979C115.596 97.3829 115.162 98.3819 114.514 100.427C113.656 103.135 113.651 105.311 114.129 106.975C114.162 106.891 114.193 106.807 114.222 106.724C115.398 103.286 115.971 98.5499 115.854 96.8979ZM109.268 93.7479C109.099 93.9029 108.613 94.5329 107.916 96.9689C106.997 100.182 107.563 103.113 108.643 105.215C108.85 104.781 108.994 104.281 109.093 103.813C110.13 98.9019 109.828 94.4589 109.268 93.7479Z"
          fill="#263238"/>
    <path d="M166.698 169.997C165.173 169.997 163.569 169.649 162.137 168.808C161.899 168.667 161.819 168.362 161.959 168.123C162.098 167.884 162.405 167.807 162.643 167.944C166.21 170.039 170.821 168.577 171.77 167.051C171.88 166.872 171.981 166.645 171.917 166.38C170.506 166.529 168.77 166.155 166.786 164.914C164.241 163.323 164.045 162.85 164.061 162.472C164.071 162.248 164.198 162.053 164.402 161.949C165.398 161.444 169.907 163.523 171.787 164.759C172.033 164.921 172.241 165.096 172.409 165.281C173.24 165.079 173.884 164.649 174.312 164.136C174.606 163.783 174.802 163.399 174.899 163.014C174.833 163.024 174.766 163.032 174.699 163.038C173.1 163.199 171.496 162.513 169.788 160.934C168.614 159.849 168.158 159.101 168.31 158.508C168.358 158.319 168.516 157.983 169.029 157.855C170.412 157.511 173.826 158.966 175.222 160.497C175.536 160.841 175.75 161.246 175.864 161.681C177.169 161.068 178.549 159.693 180.183 157.41C180.344 157.185 180.656 157.134 180.881 157.295C181.106 157.455 181.157 157.768 180.997 157.992C179.108 160.632 177.533 162.128 175.951 162.738C175.889 163.442 175.598 164.158 175.082 164.778C174.575 165.385 173.836 165.907 172.901 166.189C173.001 166.639 172.911 167.115 172.621 167.581C171.776 168.938 169.358 169.997 166.698 169.997ZM165.81 163.061C166.146 163.309 166.628 163.637 167.316 164.068C168.673 164.917 169.882 165.308 170.916 165.39C169.259 164.363 167.092 163.454 165.81 163.061ZM169.3 158.813C169.356 158.969 169.578 159.38 170.466 160.201C171.952 161.575 173.304 162.186 174.597 162.045C174.703 162.034 174.81 162.019 174.917 161.997C174.846 161.693 174.701 161.412 174.483 161.172C173.076 159.629 169.983 158.652 169.3 158.813Z"
          fill="#263238"/>
    <path d="M179.942 168.625L164.36 171.455L150.213 94.2429L120.149 99.7039L71.16 186.703L76.42 215.411L139.257 203.997L143.559 227.478L173.623 222.017L169.321 198.537L184.903 195.706L179.942 168.625ZM101.094 182.948L127.053 137.381L134.297 176.917L101.094 182.948Z"
          fill="#6C60F4"/>
    <path d="M305.43 88.992C304.848 83.658 303.783 78.919 302.233 74.774C300.684 70.629 298.353 66.566 295.243 62.585C292.133 58.604 287.898 55.148 282.539 52.219C277.179 49.291 270.105 47.252 261.316 46.107C243.024 43.724 228.765 46.972 218.534 55.847C208.302 64.724 201.571 81.728 198.336 106.858C197.02 117.079 196.694 126.527 197.359 135.203C198.022 143.878 199.614 150.856 202.137 156.136C205.588 163.555 210.472 169.48 216.786 173.908C223.099 178.337 231.748 181.268 242.736 182.699C262.333 185.252 276.855 181.491 286.305 171.412C295.753 161.335 302.022 144.3 305.11 120.311C306.489 109.608 306.595 99.169 305.43 88.992Z"
          fill="#6C60F4"/>
    <path d="M251.766 172.433C249.361 172.351 246.802 172.134 244.159 171.789C235.005 170.597 227.922 168.28 223.106 164.901C218.354 161.569 214.759 157.185 212.114 151.495L212.065 151.392C210.142 147.369 208.886 141.639 208.33 134.364C207.725 126.476 208.034 117.695 209.248 108.262C212.817 80.541 220.189 68.975 225.745 64.155C232.223 58.535 240.966 55.995 252.475 56.389C254.833 56.47 257.33 56.681 259.896 57.015C267.282 57.977 273.126 59.611 277.266 61.872C281.275 64.063 284.408 66.582 286.576 69.357C288.98 72.433 290.781 75.552 291.93 78.626C293.153 81.896 294.016 85.785 294.496 90.184C295.561 99.493 295.46 109.137 294.203 118.906C291.43 140.445 286.074 155.579 278.283 163.887C272.504 170.052 263.831 172.848 251.769 172.434C251.767 172.433 251.766 172.433 251.766 172.433Z"
          fill="#263238"/>
    <path d="M271.336 89.287L271.466 85.499L269.141 84.739C269.045 83.445 268.829 82.167 268.521 80.935L270.492 79.482L269.153 75.924L266.715 76.12C266.134 74.97 265.451 73.875 264.686 72.848L265.949 70.74L263.352 67.97L261.172 69.086C260.19 68.252 259.155 67.496 258.047 66.828L258.4 64.408L254.942 62.838L253.358 64.695C252.151 64.303 250.9 64.01 249.606 63.816L249.017 61.444L245.219 61.314L244.469 63.64C243.164 63.745 241.897 63.952 240.666 64.26L239.202 62.299L235.644 63.628L235.841 66.066C234.69 66.657 233.596 67.339 232.569 68.105L230.471 66.843L227.691 69.429L228.807 71.618C227.973 72.59 227.217 73.635 226.558 74.743L224.139 74.38L222.56 77.838L224.427 79.423C224.035 80.631 223.732 81.891 223.548 83.175L221.166 83.773L221.036 87.561L223.371 88.322C223.466 89.626 223.683 90.894 223.991 92.125L222.02 93.578L223.359 97.136L225.797 96.939C226.378 98.089 227.061 99.184 227.826 100.211L226.563 102.319L229.16 105.09L231.339 103.974C232.311 104.808 233.356 105.564 234.463 106.233L234.1 108.652L237.558 110.222L239.153 108.365C240.36 108.757 241.611 109.05 242.905 109.244L243.494 111.616L247.292 111.746L248.042 109.42C249.346 109.315 250.614 109.108 251.845 108.8L253.299 110.761L256.857 109.432L256.67 106.994C257.821 106.403 258.905 105.72 259.942 104.954L262.04 106.217L264.82 103.63L263.704 101.441C264.538 100.469 265.294 99.424 265.952 98.316L268.371 98.679L269.95 95.221L268.083 93.636C268.475 92.429 268.778 91.178 268.962 89.884L271.336 89.287ZM245.741 101.558C237.446 101.274 230.95 94.317 231.234 86.022C231.519 77.717 238.475 71.222 246.77 71.506C255.065 71.79 261.561 78.746 261.276 87.051C260.993 95.346 254.036 101.842 245.741 101.558Z"
          fill="#6C60F4"/>
    <path opacity="0.3"
          d="M287.122 158.865L287.397 156.312L285.862 155.686C285.857 154.808 285.781 153.939 285.635 153.092L287.035 152.203L286.324 149.733L284.662 149.746C284.327 148.939 283.932 148.164 283.466 147.435L284.414 146.075L282.809 144.077L281.278 144.715C280.667 144.109 280.007 143.548 279.287 143.044L279.659 141.418L277.408 140.183L276.232 141.371C275.425 141.027 274.591 140.776 273.755 140.584L273.472 138.948L270.919 138.662L270.293 140.197C269.415 140.202 268.558 140.29 267.699 140.436L266.811 139.024L264.34 139.747L264.353 141.409C263.557 141.745 262.783 142.14 262.042 142.606L260.682 141.646L258.685 143.251L259.323 144.782C258.728 145.394 258.156 146.053 257.651 146.773L256.036 146.413L254.801 148.664L255.978 149.828C255.646 150.648 255.384 151.47 255.191 152.317L253.555 152.588L253.28 155.141L254.814 155.779C254.808 156.645 254.895 157.514 255.042 158.362L253.631 159.25L254.354 161.721L256.016 161.719C256.352 162.515 256.746 163.289 257.213 164.019L256.254 165.379L257.859 167.388L259.403 166.739C260.014 167.345 260.673 167.906 261.394 168.411L261.022 170.037L263.273 171.273L264.448 170.096C265.256 170.428 266.09 170.679 266.926 170.871L267.209 172.507L269.762 172.793L270.388 171.258C271.254 171.253 272.123 171.166 272.982 171.02L273.87 172.431L276.329 171.708L276.328 170.046C277.124 169.71 277.898 169.316 278.639 168.85L279.987 169.809L281.996 168.205L281.346 166.673C281.952 166.062 282.513 165.402 283.029 164.683L284.643 165.042L285.878 162.791L284.701 161.627C285.033 160.808 285.284 159.985 285.476 159.149L287.122 158.865ZM274.249 157.874C273.063 160.033 270.344 160.83 268.185 159.644C266.026 158.458 265.241 155.74 266.427 153.581C267.613 151.422 270.319 150.637 272.479 151.822C274.638 153.008 275.434 155.715 274.249 157.874Z"
          fill="#6C60F4"/>
    <path d="M301.29 115.649L298.309 113.59C298.308 113.588 298.308 113.585 298.307 113.583C298.012 112.5 297.605 111.458 297.108 110.478L297.872 107.481L293.548 102.85L290.505 103.407C289.563 102.844 288.551 102.368 287.492 102C287.49 101.999 287.487 101.999 287.484 101.998L285.634 98.882L279.303 98.665L277.244 101.646C277.24 101.647 277.236 101.648 277.232 101.649C276.15 101.944 275.109 102.35 274.13 102.846L271.134 102.082L266.504 106.406L267.06 109.444C267.059 109.445 267.059 109.446 267.058 109.447C266.484 110.4 266.018 111.412 265.65 112.472L262.535 114.322L262.318 120.653L265.301 122.713C265.595 123.803 265.99 124.843 266.496 125.831C266.496 125.832 266.496 125.832 266.496 125.832L265.735 128.82L270.058 133.45L273.083 132.897C274.037 133.461 275.05 133.939 276.123 134.307C276.124 134.308 276.125 134.308 276.126 134.308L277.973 137.419L284.304 137.636L286.361 134.657C287.455 134.363 288.498 133.956 289.489 133.458C289.489 133.458 289.49 133.458 289.49 133.457L292.472 134.217L297.102 129.894L296.546 126.856C297.12 125.903 297.586 124.89 297.954 123.831L301.07 121.979L301.29 115.649ZM281.559 125.274C277.623 125.139 274.549 121.835 274.683 117.911C274.818 113.975 278.111 110.901 282.046 111.035C285.982 111.17 289.056 114.463 288.922 118.398C288.788 122.322 285.494 125.409 281.559 125.274Z"
          fill="white"/>
    <path d="M323.043 65.1241L323.564 63.8671C323.565 63.8671 323.566 63.8661 323.567 63.8661C323.941 63.6731 324.292 63.4411 324.613 63.1811L325.774 63.2251L327.134 61.2731L326.69 60.1991C326.822 59.8091 326.918 59.4001 326.969 58.9821C326.969 58.9811 326.969 58.9801 326.969 58.9791L327.967 58.0541L327.548 55.7121L326.291 55.1911C326.29 55.1901 326.29 55.1881 326.289 55.1871C326.096 54.8131 325.865 54.4631 325.605 54.1421L325.649 52.9821L323.697 51.6221L322.625 52.0651H322.624C322.229 51.9291 321.821 51.8381 321.403 51.7861L320.478 50.7881L318.136 51.2071L317.614 52.4651C317.237 52.6591 316.886 52.8861 316.563 53.1501L315.406 53.1061L314.047 55.0581L314.488 56.1251C314.356 56.5201 314.26 56.9291 314.21 57.3521L313.213 58.2761L313.632 60.6181L314.888 61.1391C315.082 61.5181 315.314 61.8691 315.575 62.1931L315.531 63.3481L317.483 64.7081L318.555 64.2641C318.95 64.4001 319.359 64.4911 319.777 64.5431L320.702 65.5421L323.043 65.1241ZM317.954 58.6371C317.694 57.1811 318.665 55.7921 320.116 55.5321C321.572 55.2721 322.96 56.2381 323.221 57.6941C323.482 59.1501 322.514 60.5381 321.059 60.7991C319.608 61.0591 318.215 60.0931 317.954 58.6371Z"
          fill="#6C60F4"/>
    <path d="M295.607 58.4889L294.843 57.8439C296.171 56.2719 298.054 54.2799 300.851 52.8149L301.315 53.7019C298.333 55.2629 296.423 57.5239 295.607 58.4889Z"
          fill="#6C60F4"/>
    <path d="M303.591 52.8019L303.196 51.8819C306.979 50.2619 310.931 49.6299 314.935 50.0019L314.842 50.9979C311.002 50.6319 307.218 51.2459 303.591 52.8019Z"
          fill="#6C60F4"/>
    <path d="M301.703 59.7201L300.877 59.1571C302.931 56.1401 306.99 53.5131 310.748 52.7681L310.942 53.7481C307.42 54.4481 303.621 56.9031 301.703 59.7201Z"
          fill="#6C60F4"/>
    <path d="M235.343 155.957C235.209 155.957 235.079 155.903 234.984 155.805L232.887 153.644C231.819 153.543 230.763 153.347 229.741 153.058L226.473 154.499C226.318 154.57 226.138 154.552 225.995 154.459L220.52 150.829C220.378 150.734 220.294 150.575 220.296 150.404L220.35 146.841C219.685 146.013 219.092 145.114 218.584 144.164L215.779 143.076C215.62 143.014 215.504 142.877 215.469 142.71L214.164 136.272C214.13 136.105 214.184 135.932 214.306 135.813L216.467 133.717C216.567 132.654 216.763 131.597 217.051 130.568L215.612 127.304C215.543 127.148 215.559 126.968 215.652 126.825L219.281 121.349C219.375 121.207 219.509 121.119 219.706 121.125L223.267 121.18C224.103 120.512 225.003 119.919 225.946 119.415L227.034 116.608C227.096 116.449 227.234 116.333 227.401 116.298L233.839 114.992C234.006 114.96 234.179 115.012 234.297 115.134L236.391 117.293C237.455 117.393 238.513 117.59 239.544 117.878L242.807 116.439C242.962 116.371 243.142 116.386 243.285 116.48L248.76 120.109C248.902 120.204 248.986 120.363 248.984 120.534L248.93 124.099C249.596 124.928 250.188 125.827 250.694 126.774L253.501 127.863C253.66 127.925 253.776 128.062 253.811 128.229L255.116 134.667C255.15 134.834 255.096 135.007 254.974 135.126L252.812 137.223C252.713 138.274 252.517 139.329 252.227 140.366L253.668 143.635C253.737 143.791 253.721 143.972 253.628 144.114L250 149.591C249.906 149.733 249.756 149.804 249.576 149.815L246.013 149.761C245.183 150.423 244.284 151.014 243.338 151.52L242.247 154.333C242.186 154.492 242.047 154.608 241.88 154.643L235.442 155.949C235.409 155.954 235.376 155.957 235.343 155.957ZM229.706 152.027C229.753 152.027 229.801 152.034 229.847 152.048C230.918 152.362 232.031 152.57 233.158 152.664C233.279 152.674 233.391 152.727 233.475 152.814L235.511 154.913L241.413 153.716L242.473 150.984C242.517 150.871 242.601 150.777 242.708 150.721C243.711 150.198 244.658 149.576 245.523 148.87C245.614 148.796 245.717 148.745 245.846 148.758L249.317 148.811L252.644 143.791L251.24 140.607C251.193 140.5 251.185 140.378 251.218 140.265C251.534 139.174 251.741 138.06 251.834 136.954C251.844 136.833 251.897 136.721 251.984 136.636L254.083 134.6L252.887 128.699L250.16 127.641C250.044 127.596 249.949 127.51 249.893 127.399C249.373 126.399 248.75 125.456 248.042 124.593C247.967 124.501 247.926 124.386 247.928 124.268L247.981 120.794L242.961 117.467L239.785 118.867C239.677 118.914 239.557 118.922 239.444 118.89C238.36 118.575 237.242 118.367 236.121 118.274C236 118.264 235.888 118.21 235.804 118.125L233.771 116.028L227.869 117.225L226.812 119.952C226.768 120.065 226.684 120.159 226.576 120.215C225.58 120.734 224.632 121.358 223.76 122.069C223.669 122.143 223.547 122.196 223.435 122.183L219.965 122.129L216.638 127.149L218.04 130.328C218.1 130.465 218.096 130.621 218.03 130.754C217.748 131.753 217.541 132.868 217.447 133.987C217.437 134.107 217.384 134.219 217.297 134.304L215.199 136.339L216.395 142.24L219.121 143.297C219.243 143.344 219.341 143.437 219.394 143.554C219.912 144.546 220.534 145.488 221.238 146.345C221.313 146.437 221.355 146.554 221.353 146.672L221.3 150.144L226.32 153.472L229.504 152.068C229.568 152.042 229.637 152.027 229.706 152.027ZM234.624 148.792C232.096 148.792 229.542 148.076 227.281 146.578C224.315 144.612 222.291 141.608 221.582 138.121C220.873 134.633 221.566 131.078 223.532 128.111H223.533C227.598 121.986 235.885 120.304 242.006 124.361C248.128 128.424 249.808 136.711 245.75 142.835C243.189 146.698 238.945 148.792 234.624 148.792ZM224.366 128.664C222.548 131.407 221.907 134.695 222.563 137.922C223.218 141.148 225.09 143.926 227.834 145.744C233.501 149.498 241.163 147.945 244.915 142.282C248.669 136.618 247.116 128.952 241.453 125.195C235.791 121.442 228.126 122.998 224.366 128.664Z"
          fill="white"/>
    <path d="M425.826 177.65L410.131 175.532L420.511 97.7239L390.23 93.6379L316.777 161.264L312.918 190.193L376.21 198.735L373.054 222.397L403.335 226.483L406.491 202.821L422.186 204.939L425.826 177.65ZM346.408 166.932L385.166 131.604L379.851 171.445L346.408 166.932Z"
          fill="#6C60F4"/>
    <path d="M394.134 225.741C394.104 225.741 394.074 225.738 394.044 225.733C393.773 225.683 393.592 225.423 393.642 225.151L416.968 97.221C417.017 96.951 417.28 96.781 417.549 96.819C417.821 96.869 418.001 97.13 417.951 97.401L394.625 225.331C394.581 225.572 394.371 225.741 394.134 225.741Z"
          fill="#263238"/>
    <path d="M414.831 99.3699C414.815 99.8219 414.436 100.176 413.984 100.161C413.532 100.145 413.178 99.7659 413.193 99.3139C413.208 98.8619 413.588 98.5079 414.04 98.5229C414.493 98.5379 414.847 98.9169 414.831 99.3699Z"
          fill="#263238"/>
    <path d="M411.499 116.671C411.483 117.123 411.104 117.477 410.652 117.462C410.2 117.447 409.846 117.067 409.861 116.615C409.876 116.163 410.256 115.809 410.708 115.824C411.16 115.839 411.514 116.218 411.499 116.671Z"
          fill="#263238"/>
    <path d="M408.166 133.971C408.15 134.423 407.771 134.777 407.319 134.762C406.867 134.747 406.513 134.367 406.528 133.915C406.543 133.463 406.923 133.109 407.375 133.124C407.828 133.14 408.182 133.519 408.166 133.971Z"
          fill="#263238"/>
    <path d="M401.613 151.982C401.597 152.434 401.218 152.788 400.766 152.773C400.314 152.757 399.96 152.378 399.975 151.926C399.99 151.474 400.37 151.12 400.822 151.135C401.274 151.15 401.629 151.529 401.613 151.982Z"
          fill="#263238"/>
    <path d="M401.501 168.573C401.485 169.025 401.106 169.379 400.654 169.364C400.202 169.348 399.848 168.969 399.863 168.517C399.878 168.065 400.258 167.711 400.71 167.726C401.163 167.741 401.517 168.121 401.501 168.573Z"
          fill="#263238"/>
    <path d="M398.169 185.874C398.153 186.326 397.774 186.68 397.322 186.665C396.87 186.65 396.516 186.27 396.531 185.818C396.546 185.366 396.926 185.012 397.378 185.027C397.83 185.042 398.184 185.421 398.169 185.874Z"
          fill="#263238"/>
    <path d="M394.836 203.175C394.82 203.627 394.441 203.981 393.989 203.966C393.537 203.95 393.183 203.571 393.198 203.119C393.214 202.667 393.593 202.313 394.045 202.328C394.498 202.343 394.852 202.722 394.836 203.175Z"
          fill="#263238"/>
    <path d="M391.504 220.475C391.488 220.927 391.109 221.281 390.657 221.266C390.205 221.251 389.851 220.871 389.866 220.419C389.881 219.967 390.261 219.613 390.713 219.628C391.165 219.643 391.519 220.023 391.504 220.475Z"
          fill="#263238"/>
    <path d="M400.794 152.454C400.564 152.454 400.356 152.294 400.306 152.058C400.248 151.788 400.42 151.523 400.69 151.464L403.174 150.931C403.448 150.877 403.71 151.044 403.768 151.316C403.826 151.586 403.654 151.851 403.384 151.91L400.9 152.443C400.864 152.45 400.829 152.454 400.794 152.454Z"
          fill="#263238"/>
    <path d="M409.085 143.241C409.085 143.241 406.847 149.07 406.094 152.602C405.341 156.134 405.295 164.026 405.295 164.026"
          fill="#263238"/>
    <path d="M405.295 164.526H405.292C405.016 164.524 404.793 164.299 404.795 164.023C404.797 163.699 404.849 156.039 405.605 152.497C406.358 148.968 408.526 143.302 408.618 143.061C408.717 142.804 409.005 142.676 409.264 142.774C409.522 142.873 409.651 143.163 409.552 143.42C409.53 143.479 407.32 149.254 406.583 152.706C405.849 156.148 405.796 163.951 405.795 164.029C405.793 164.305 405.57 164.526 405.295 164.526Z"
          fill="#263238"/>
    <path d="M222.452 250.841C223.841 228.438 221.286 187.714 263.396 193.105C308.531 198.883 295.618 251.661 295.618 251.661L222.452 250.841Z"
          fill="#263238"/>
    <path d="M251.514 237.375C261.662 237.375 269.889 229.148 269.889 219C269.889 208.852 261.662 200.625 251.514 200.625C241.366 200.625 233.139 208.852 233.139 219C233.139 229.148 241.366 237.375 251.514 237.375Z"
          fill="white"/>
    <path d="M253.927 200.654C245.223 199.168 235.917 205.584 235 212.084L269.507 215.257C268.291 207.847 260.833 201.833 253.927 200.654Z"
          fill="#263238"/>
    <path d="M265.576 218.543C265.329 223.347 262.711 227.117 259.728 226.964C256.745 226.811 254.527 222.792 254.773 217.988C255.02 213.184 257.638 209.414 260.621 209.567C263.604 209.72 265.823 213.739 265.576 218.543Z"
          fill="#263238"/>
    <path d="M251.514 238.375C240.83 238.375 232.138 229.684 232.138 219C232.138 208.316 240.83 199.625 251.514 199.625C262.198 199.625 270.889 208.316 270.889 219C270.889 229.684 262.197 238.375 251.514 238.375ZM251.514 201.625C241.933 201.625 234.138 209.419 234.138 219C234.138 228.581 241.932 236.375 251.514 236.375C261.095 236.375 268.889 228.581 268.889 219C268.889 209.419 261.094 201.625 251.514 201.625Z"
          fill="#6C60F4"/>
    <path opacity="0.3"
          d="M290.485 250.277C290.446 250.277 290.407 250.272 290.367 250.263C290.099 250.198 289.933 249.928 289.998 249.659C290.031 249.524 293.217 235.965 289.908 222.256C289.843 221.988 290.008 221.718 290.277 221.652C290.542 221.592 290.815 221.752 290.88 222.021C294.248 235.971 291.004 249.755 290.97 249.893C290.915 250.124 290.711 250.277 290.485 250.277Z"
          fill="white"/>
    <path opacity="0.3"
          d="M287.698 214.759C287.508 214.759 287.327 214.651 287.243 214.467C285.957 211.661 284.362 209.085 282.501 206.81C282.326 206.596 282.358 206.282 282.572 206.107C282.785 205.931 283.1 205.962 283.276 206.177C285.19 208.518 286.831 211.167 288.152 214.051C288.267 214.302 288.157 214.599 287.906 214.713C287.838 214.744 287.768 214.759 287.698 214.759Z"
          fill="white"/>
    <path d="M128.735 355.918C128.611 355.918 128.487 355.917 128.363 355.913C125.603 355.837 123.427 353.538 123.502 350.777C123.577 348.017 125.851 345.882 128.637 345.917C128.668 345.918 128.7 345.918 128.733 345.918C131.622 345.918 138.572 342.408 153.111 319.488C153.892 318.258 155.172 317.428 156.614 317.218C158.059 317.013 159.519 317.441 160.619 318.398C178.56 334.041 197.573 343.778 197.763 343.875C200.224 345.125 201.207 348.135 199.957 350.596C198.707 353.058 195.699 354.043 193.238 352.792C192.483 352.409 175.864 343.912 158.44 329.646C146.254 347.965 137.211 355.918 128.735 355.918Z"
          fill="#263238"/>
    <path d="M159.67 317.5C159.528 317.5 159.386 317.49 159.242 317.47C157.602 317.236 156.462 315.716 156.697 314.075C157.408 309.098 156.527 290.449 150.222 275.949C149.647 274.628 150.093 273.085 151.284 272.273C164.982 262.938 194.16 261.822 195.396 261.779C197.043 261.743 198.44 263.017 198.498 264.673C198.556 266.328 197.26 267.718 195.605 267.775C195.335 267.785 169.825 268.763 156.717 275.977C162.301 290.415 163.567 308.414 162.636 314.924C162.422 316.421 161.139 317.5 159.67 317.5Z"
          fill="#263238"/>
    <path d="M164.71 313.616C162.715 308.91 153.722 309.445 148.442 313.478C145.62 315.633 141.801 322.119 141.399 324.469C140.998 326.82 142.626 328.949 145.422 328.707C148.87 328.409 153.603 323.398 153.603 323.398C150.454 326.486 154.517 328.665 160.58 324.199C163.944 321.722 166.944 318.886 164.71 313.616Z"
          fill="#6C60F4"/>
    <path d="M336.706 252.161C336.661 252.161 336.614 252.155 336.568 252.141C336.303 252.065 336.149 251.787 336.226 251.523C337.558 246.883 339.013 244.048 340.926 242.472C340.633 241.476 340.666 240.332 341.079 239.213C341.481 238.124 342.258 237.042 343.441 236.208C342.862 235.582 342.646 234.763 342.851 233.826C343.078 232.785 343.835 231.656 344.987 230.67C344.534 230.149 344.423 229.582 344.42 229.162C344.395 226.18 349.927 221.637 356.182 220.783C356.456 220.732 356.708 220.936 356.745 221.211C356.782 221.484 356.591 221.736 356.317 221.774C350.379 222.585 345.4 226.883 345.42 229.154C345.423 229.522 345.559 229.818 345.782 230.057C348.033 228.49 351.356 227.482 355.064 228.194C358.133 228.781 359.381 229.429 359.237 230.361C358.965 232.114 352.428 232.476 348.047 231.955C347.054 231.837 346.327 231.602 345.797 231.309C344.708 232.2 344.01 233.2 343.828 234.039C343.665 234.788 343.907 235.31 344.323 235.675C346.179 234.718 348.792 234.318 352.239 235.08C356.776 236.081 356.945 236.634 357.047 236.963C357.119 237.198 357.061 237.44 356.886 237.625C355.93 238.638 348.98 238.157 345.488 237.302C345.033 237.191 344.632 237.039 344.285 236.851C343.128 237.58 342.384 238.564 342.017 239.559C341.723 240.357 341.656 241.152 341.791 241.862C341.971 241.755 342.155 241.657 342.343 241.567C344.412 240.585 346.914 240.75 349.997 242.068C352.042 242.944 353.028 243.718 353.1 244.507C353.122 244.74 353.076 245.187 352.53 245.549C351.005 246.562 345.66 246.408 342.882 244.929C342.227 244.579 341.708 244.064 341.344 243.443C339.709 244.936 338.391 247.609 337.188 251.798C337.123 252.019 336.923 252.161 336.706 252.161ZM342.131 242.83C342.407 243.342 342.818 243.764 343.35 244.047C345.607 245.248 350.046 245.523 351.712 244.851C352.052 244.713 352.103 244.598 352.103 244.598C352.103 244.595 352.048 244.035 349.602 242.989C346.799 241.79 344.564 241.622 342.771 242.471C342.553 242.575 342.339 242.694 342.131 242.83ZM345.465 236.262C345.551 236.287 345.638 236.311 345.723 236.332C349.254 237.196 354.021 237.344 355.656 237.075C355.15 236.861 354.116 236.519 352.021 236.057C349.248 235.446 347.08 235.637 345.465 236.262ZM346.727 230.64C347.178 230.808 347.688 230.907 348.164 230.963C353.147 231.553 357.546 230.856 358.204 230.235C358.034 230.081 357.363 229.653 354.875 229.177C351.592 228.552 348.724 229.375 346.727 230.64Z"
          fill="#263238"/>
    <path d="M206.527 354.248C207.186 354.037 206.965 353.401 206.23 353.401H192.691C166.91 350.671 148.897 354.33 160.248 355.193C171.598 356.056 159.449 355.875 151.16 359.01C142.871 362.146 212.814 362.936 219.175 359.01C225.041 355.389 197.392 357.176 206.527 354.248Z"
          fill="#263238"/>
    <path d="M303.469 358.238L185.667 354.333L180.778 240.111L319.889 243.222L303.469 358.238Z" fill="#6C60F4"/>
    <path d="M222.452 356.053C222.194 356.053 221.975 355.856 221.954 355.594L212.511 240.873C212.488 240.598 212.693 240.356 212.969 240.334C213.252 240.318 213.486 240.516 213.508 240.791L222.951 355.512C222.973 355.787 222.769 356.029 222.493 356.051C222.479 356.052 222.465 356.053 222.452 356.053Z"
          fill="#263238"/>
    <path d="M303.469 358.238L335.131 353.418L345.104 247.208L319.889 243.222L303.469 358.238Z" fill="#6C60F4"/>
    <path opacity="0.2" d="M303.469 358.238L335.131 353.418L345.104 247.208L319.889 243.222L303.469 358.238Z"
          fill="black"/>
    <path d="M195.734 332.316L192.83 264.455C192.527 257.371 198.274 251.506 205.362 251.665L293.421 253.634C300.775 253.798 306.332 260.352 305.292 267.634L295.529 336.025C294.644 342.223 289.234 346.761 282.977 346.553L207.586 344.054C201.174 343.841 196.009 338.725 195.734 332.316Z"
          fill="#263238"/>
    <path d="M205.247 272.488L218.871 272.922L218.759 276.435L210.23 276.164L210.147 278.779L218.059 279.031L217.952 282.386L210.04 282.134L209.937 285.377L218.713 285.656L218.595 289.382L204.724 288.941L205.247 272.488Z"
          fill="white"/>
    <path d="M221.4 289.471L221.923 273.019L230.396 273.289C231.967 273.339 233.164 273.512 233.985 273.808C234.807 274.104 235.46 274.624 235.946 275.37C236.432 276.116 236.658 277.012 236.624 278.06C236.595 278.973 236.375 279.754 235.965 280.404C235.555 281.054 235.002 281.574 234.308 281.963C233.866 282.211 233.264 282.409 232.502 282.557C233.101 282.779 233.536 282.995 233.806 283.205C233.988 283.346 234.25 283.643 234.591 284.096C234.932 284.549 235.159 284.897 235.271 285.141L237.581 289.987L231.837 289.804L229.28 284.69C228.956 284.029 228.663 283.596 228.4 283.393C228.041 283.127 227.63 282.986 227.166 282.971L226.717 282.957L226.505 289.635L221.4 289.471ZM226.818 279.848L228.961 279.916C229.193 279.923 229.644 279.863 230.315 279.735C230.654 279.678 230.934 279.515 231.156 279.245C231.378 278.975 231.495 278.66 231.506 278.301C231.523 277.77 231.368 277.357 231.04 277.062C230.712 276.767 230.085 276.605 229.157 276.575L226.924 276.504L226.818 279.848Z"
          fill="white"/>
    <path d="M239.277 290.04L239.8 273.588L248.273 273.858C249.844 273.908 251.041 274.081 251.862 274.377C252.684 274.673 253.337 275.193 253.823 275.939C254.309 276.685 254.535 277.582 254.501 278.629C254.472 279.542 254.252 280.323 253.842 280.973C253.431 281.623 252.879 282.143 252.185 282.532C251.743 282.78 251.141 282.978 250.379 283.126C250.978 283.348 251.413 283.564 251.683 283.774C251.866 283.915 252.127 284.212 252.469 284.665C252.81 285.118 253.037 285.466 253.149 285.71L255.459 290.556L249.714 290.373L247.157 285.259C246.834 284.598 246.54 284.165 246.277 283.962C245.918 283.696 245.507 283.555 245.043 283.54L244.594 283.526L244.382 290.203L239.277 290.04ZM244.695 280.417L246.838 280.485C247.07 280.492 247.521 280.432 248.192 280.303C248.531 280.246 248.811 280.083 249.033 279.813C249.255 279.543 249.372 279.228 249.383 278.869C249.4 278.338 249.245 277.925 248.917 277.63C248.589 277.335 247.961 277.173 247.034 277.143L244.801 277.072L244.695 280.417Z"
          fill="white"/>
    <path d="M256.316 282.359C256.402 279.673 257.216 277.606 258.76 276.157C260.304 274.709 262.411 274.027 265.082 274.112C267.82 274.199 269.907 275.001 271.341 276.518C272.776 278.035 273.451 280.118 273.367 282.767C273.306 284.69 272.932 286.257 272.246 287.467C271.559 288.677 270.594 289.605 269.349 290.251C268.104 290.897 266.569 291.19 264.743 291.132C262.888 291.073 261.362 290.729 260.165 290.099C258.968 289.469 258.012 288.503 257.297 287.199C256.582 285.895 256.255 284.282 256.316 282.359ZM261.399 282.543C261.346 284.204 261.617 285.407 262.211 286.152C262.805 286.897 263.633 287.287 264.696 287.321C265.788 287.356 266.645 287.027 267.266 286.336C267.887 285.644 268.227 284.378 268.286 282.537C268.335 280.989 268.059 279.847 267.457 279.113C266.855 278.378 266.019 277.994 264.949 277.96C263.924 277.927 263.089 278.264 262.445 278.97C261.801 279.676 261.452 280.867 261.399 282.543Z"
          fill="white"/>
    <path d="M275.907 291.205L276.43 274.753L284.903 275.023C286.474 275.073 287.671 275.246 288.492 275.542C289.314 275.838 289.967 276.358 290.453 277.104C290.939 277.85 291.165 278.747 291.131 279.794C291.102 280.707 290.882 281.488 290.472 282.138C290.062 282.788 289.509 283.308 288.815 283.697C288.372 283.945 287.77 284.143 287.009 284.291C287.608 284.513 288.043 284.729 288.313 284.939C288.495 285.08 288.757 285.377 289.098 285.83C289.439 286.283 289.666 286.631 289.778 286.875L292.088 291.721L286.344 291.538L283.787 286.424C283.463 285.763 283.17 285.33 282.907 285.127C282.548 284.861 282.137 284.72 281.673 284.705L281.224 284.691L281.012 291.368L275.907 291.205ZM281.325 281.582L283.468 281.65C283.7 281.657 284.151 281.597 284.822 281.468C285.161 281.411 285.441 281.248 285.663 280.978C285.885 280.708 286.002 280.393 286.013 280.034C286.03 279.503 285.875 279.09 285.547 278.795C285.219 278.5 284.592 278.338 283.664 278.308L281.431 278.237L281.325 281.582Z"
          fill="white"/>
    <path d="M283.999 319.158C283.643 319.158 283.289 319.014 283.029 318.731L274.468 309.362L265.231 317.801C264.696 318.291 263.866 318.252 263.377 317.718L254.816 308.349L245.579 316.788C245.044 317.277 244.213 317.239 243.725 316.705L235.164 307.336L225.927 315.776C225.671 316.011 225.325 316.134 224.983 316.119C224.635 316.103 224.308 315.95 224.073 315.693L215.512 306.324L206.275 314.763C205.74 315.252 204.91 315.213 204.421 314.68C203.932 314.145 203.97 313.314 204.505 312.825L214.71 303.5C215.245 303.009 216.075 303.048 216.565 303.583L225.126 312.952L234.363 304.512C234.619 304.277 234.964 304.155 235.307 304.169C235.655 304.185 235.982 304.338 236.217 304.595L244.778 313.964L254.015 305.525C254.549 305.035 255.38 305.073 255.869 305.608L264.43 314.977L273.667 306.538C274.202 306.047 275.032 306.085 275.522 306.621L284.968 316.959C285.457 317.494 285.419 318.325 284.884 318.814C284.632 319.045 284.315 319.158 283.999 319.158Z"
          fill="white"/>
    <path d="M125.75 360.667L119.492 357.682L113.909 330.515L116.939 327.178L125.75 360.667Z" fill="#6C60F4"/>
    <path d="M125.75 360.667L134.055 355.815L126.935 333.432L116.939 327.178L125.75 360.667Z" fill="#6C60F4"/>
    <path opacity="0.2" d="M125.75 360.667L134.055 355.815L126.935 333.432L116.939 327.178L125.75 360.667Z"
          fill="black"/>
    <path d="M261.949 365.605C261.713 365.605 261.482 365.601 261.258 365.595C258.498 365.519 256.321 363.22 256.397 360.459C256.473 357.7 258.753 355.53 261.532 355.599C269.235 355.851 285.538 351.119 294.851 342.078C295.427 341.519 296.128 341.107 296.897 340.877C312.685 336.139 318.561 345.711 318.804 346.121L310.197 351.211C310.197 351.211 310.23 351.28 310.312 351.394C310.216 351.262 307.981 348.355 300.86 350.154C289.173 360.822 271.233 365.605 261.949 365.605Z"
          fill="#263238"/>
    <path d="M261.395 372.252L243.182 371.104L241.745 337.528L266.222 338.443L261.395 372.252Z" fill="#6C60F4"/>
    <path d="M261.395 372.252L265.652 368.015L268.291 347.079L266.222 338.443L261.395 372.252Z" fill="#6C60F4"/>
    <path opacity="0.2" d="M261.395 372.252L265.652 368.015L268.291 347.079L266.222 338.443L261.395 372.252Z"
          fill="black"/>
    <path d="M366.91 359.537C366.278 359.537 365.64 359.338 365.097 358.926C354.702 351.026 340.652 337 335.26 323.469C335.181 323.272 335.124 323.066 335.089 322.856C332.46 307.223 329.948 274.315 329.842 272.921C329.717 271.27 330.954 269.828 332.606 269.703C334.253 269.582 335.699 270.815 335.824 272.468C335.85 272.804 338.387 306.034 340.952 321.541C346.33 334.697 360.909 348.207 368.727 354.148C370.046 355.151 370.303 357.033 369.3 358.352C368.711 359.129 367.816 359.537 366.91 359.537Z"
          fill="#263238"/>
    <path d="M380.778 361.053C378.459 361.053 375.829 360.001 372.964 357.928C371.622 356.956 371.321 355.081 372.293 353.739C373.265 352.397 375.14 352.096 376.482 353.067C378.959 354.86 380.312 355.053 380.779 355.053C382.436 355.053 383.779 356.396 383.779 358.053C383.778 359.71 382.435 361.053 380.778 361.053Z"
          fill="#263238"/>
    <path d="M373.804 357.842C377.014 348.307 390.174 350.191 394.706 351.607C399.238 353.023 403.321 354.805 405.776 356.41C408.231 358.015 408.27 360.695 404.997 362.226C400.961 364.114 390.836 362.439 390.836 362.439C396.077 364.734 390.826 368.411 381.631 364.799C378.637 363.623 372.671 361.336 373.804 357.842Z"
          fill="#6C60F4"/>
    <path d="M341.862 277.036C340.671 285.138 333.962 291.112 328.504 290.31C323.046 289.508 322.819 282.272 324.01 274.17C325.201 266.068 327.359 260.169 332.817 260.971C338.275 261.774 343.053 268.935 341.862 277.036Z"
          fill="#263238"/>
    <path d="M209.875 244.694C210.327 244.694 210.694 244.327 210.694 243.875C210.694 243.423 210.327 243.056 209.875 243.056C209.423 243.056 209.056 243.423 209.056 243.875C209.056 244.327 209.423 244.694 209.875 244.694Z"
          fill="#263238"/>
    <path d="M218.208 249.778C218.208 250.23 217.841 250.597 217.389 250.597C216.937 250.597 216.569 250.23 216.569 249.778C216.569 249.325 216.936 248.959 217.389 248.959C217.842 248.959 218.208 249.325 218.208 249.778Z"
          fill="#263238"/>
    <path d="M219.125 346.683C219.125 347.136 218.758 347.502 218.306 347.502C217.853 347.502 217.486 347.135 217.486 346.683C217.486 346.23 217.853 345.864 218.306 345.864C218.758 345.863 219.125 346.23 219.125 346.683Z"
          fill="#263238"/>
    <path d="M226.639 352.586C226.639 353.039 226.272 353.405 225.819 353.405C225.367 353.405 225 353.038 225 352.586C225 352.133 225.367 351.767 225.819 351.767C226.272 351.766 226.639 352.133 226.639 352.586Z"
          fill="#263238"/>
    <path d="M82.51 362.419C80.13 362.419 76.912 360.977 75.177 358.47C75.02 358.243 75.076 357.932 75.303 357.775C75.53 357.617 75.841 357.674 75.999 357.902C77.865 360.596 81.978 362.033 83.804 361.182C83.996 361.092 84.152 360.979 84.271 360.843C82.639 360.089 81.147 358.613 80.745 356.361C80.518 355.094 80.338 353.381 81.384 353.144C82.818 352.822 84.694 356.29 85.416 358.919C85.55 359.405 85.592 359.856 85.546 360.262C86.178 360.435 86.8 360.48 87.333 360.403C87.766 360.34 88.381 360.162 88.708 359.658C87.493 358.837 86.676 357.389 86.403 355.469C86.015 352.735 86.306 352.258 86.609 352.025C86.806 351.874 87.056 351.845 87.297 351.947C88.366 352.402 89.662 356.281 89.91 358.476C89.937 358.718 89.937 358.95 89.913 359.169C90.322 359.332 90.773 359.421 91.262 359.431C92.129 359.481 92.986 359.205 93.672 358.802C93.53 358.713 93.396 358.614 93.27 358.507C92.232 357.62 91.814 356.203 91.99 354.176C92.126 352.609 92.483 351.752 93.113 351.483C93.334 351.385 93.784 351.294 94.321 351.722C95.401 352.585 96.409 355.32 96.047 357.279C95.972 357.684 95.797 358.073 95.545 358.43C97.38 358.746 99.962 358.231 102.189 357.681C102.456 357.616 102.728 357.778 102.794 358.046C102.86 358.315 102.697 358.585 102.429 358.651C99.719 359.321 96.802 359.866 94.741 359.268C93.825 359.997 92.535 360.439 91.243 360.43C90.654 360.418 90.105 360.313 89.604 360.122C89.21 360.793 88.477 361.247 87.48 361.393C86.816 361.492 86.034 361.428 85.242 361.202C85.017 361.577 84.677 361.878 84.229 362.088C83.749 362.31 83.161 362.418 82.51 362.419ZM81.646 354.142C81.588 354.295 81.483 354.801 81.731 356.186C82.06 358.026 83.251 359.249 84.57 359.894C84.564 359.681 84.525 359.445 84.454 359.186C83.668 356.327 82.175 354.357 81.646 354.142ZM87.217 353.27C87.211 353.646 87.245 354.278 87.394 355.329C87.597 356.757 88.123 357.853 88.913 358.552C88.679 356.543 87.788 354.218 87.217 353.27ZM93.508 352.401H93.506C93.504 352.402 93.131 352.591 92.985 354.261C92.839 355.944 93.145 357.084 93.919 357.745C94.095 357.895 94.295 358.021 94.518 358.124C94.801 357.811 94.994 357.461 95.061 357.096C95.329 355.647 94.639 353.525 93.865 352.666C93.665 352.443 93.536 352.401 93.508 352.401Z"
          fill="#263238"/>
    <path d="M228.873 369.978L231.583 365.278L228.873 360.578H225.972L227.611 365.278L225.972 369.978H228.873Z"
          fill="#263238"/>
    <path d="M226.163 367.728C224.813 367.728 223.713 366.628 223.713 365.278C223.713 363.928 224.813 362.838 226.163 362.838L221.555 361.916L220.333 365.637L222.389 368.776L226.163 367.728Z"
          fill="#263238"/>
    <path d="M226.557 360.578H221.127L218.417 365.278L221.127 369.978H226.557L229.267 365.278L226.557 360.578ZM223.847 367.728C222.497 367.728 221.397 366.628 221.397 365.278C221.397 363.928 222.497 362.838 223.847 362.838C225.197 362.838 226.287 363.928 226.287 365.278C226.287 366.628 225.197 367.728 223.847 367.728Z"
          fill="#6C60F4"/>
    <path d="M417.889 360.265L415.877 356.774L417.889 353.284H420.044L418.827 356.775L420.044 360.265H417.889Z"
          fill="#6C60F4"/>
    <path d="M419.902 358.594C420.905 358.594 421.722 357.777 421.722 356.774C421.722 355.772 420.905 354.962 419.902 354.962L423.324 354.277L424.232 357.041L422.705 359.372L419.902 358.594Z"
          fill="#6C60F4"/>
    <path d="M419.61 353.284H423.643L425.656 356.774L423.643 360.265H419.61L417.597 356.774L419.61 353.284ZM421.623 358.594C422.626 358.594 423.443 357.777 423.443 356.774C423.443 355.772 422.626 354.962 421.623 354.962C420.62 354.962 419.811 355.772 419.811 356.774C419.81 357.777 420.62 358.594 421.623 358.594Z"
          fill="#263238"/>
    <path d="M342.948 364.898H347.466C348.642 364.898 349.605 363.936 349.605 362.759C349.605 361.583 348.642 360.62 347.466 360.62H342.948C341.771 360.62 340.809 361.583 340.809 362.759C340.809 363.936 341.771 364.898 342.948 364.898Z"
          fill="#263238"/>
    <path d="M335.73 360.863C336.846 358.497 339.55 357.428 341.772 358.475C343.993 359.522 344.889 362.289 343.774 364.655C342.659 367.021 339.954 368.09 337.733 367.043C335.51 365.996 334.614 363.229 335.73 360.863Z"
          fill="#6C60F4"/>
    <path d="M337.002 367.024L338.241 367.608L342.55 358.471L341.31 357.886L337.002 367.024Z" fill="#263238"/>
</svg>
