<svg width="500" height="406" viewBox="0 0 500 406" fill="none" xmlns="http://www.w3.org/2000/svg">
<path d="M500 360.398H0V360.648H500V360.398Z" fill="#EBEBEB"/>
<path d="M449.901 376.494H416.779V376.744H449.901V376.494Z" fill="#EBEBEB"/>
<path d="M273.222 373.361H260.335V373.611H273.222V373.361Z" fill="#EBEBEB"/>
<path d="M349.667 374.417H322.527V374.667H349.667V374.417Z" fill="#EBEBEB"/>
<path d="M415.778 367.208H359.667V367.458H415.778V367.208Z" fill="#EBEBEB"/>
<path d="M78.986 378.778H52.459V379.028H78.986V378.778Z" fill="#EBEBEB"/>
<path d="M110.889 378.778H87.889V379.028H110.889V378.778Z" fill="#EBEBEB"/>
<path d="M191.814 373.236H131V373.486H191.814V373.236Z" fill="#EBEBEB"/>
<path d="M237.014 315.8H43.915C40.768 315.8 38.207 313.239 38.207 310.092V38.6601C38.207 35.5131 40.768 32.9521 43.915 32.9521H237.014C240.16 32.9521 242.721 35.5131 242.721 38.6601V310.092C242.721 313.239 240.16 315.8 237.014 315.8ZM43.915 33.2031C40.905 33.2031 38.457 35.6511 38.457 38.6611V310.093C38.457 313.103 40.905 315.551 43.915 315.551H237.014C240.023 315.551 242.471 313.103 242.471 310.093V38.6601C242.471 35.6511 240.023 33.2021 237.014 33.2021L43.915 33.2031Z" fill="#EBEBEB"/>
<path d="M453.31 315.8H260.212C257.065 315.8 254.505 313.239 254.505 310.092V38.6601C254.505 35.5131 257.066 32.9521 260.212 32.9521H453.31C456.458 32.9521 459.018 35.5131 459.018 38.6601V310.092C459.019 313.239 456.458 315.8 453.31 315.8ZM260.212 33.2031C257.203 33.2031 254.755 35.6511 254.755 38.6611V310.093C254.755 313.103 257.203 315.551 260.212 315.551H453.31C456.32 315.551 458.768 313.103 458.768 310.093V38.6601C458.768 35.6511 456.32 33.2021 453.31 33.2021L260.212 33.2031Z" fill="#EBEBEB"/>
<path d="M467.064 172.172C470.319 160.888 469.722 149.412 466.073 139.128C468.925 135.045 471.176 130.439 472.633 125.386C479.33 102.168 467.118 77.983 445.095 69.28C440.845 38.865 419.258 12.28 387.843 3.22004C363.006 -3.94296 337.536 1.44204 318.172 15.609C313.326 10.537 307.124 6.63404 299.898 4.55004C278.117 -1.73196 255.367 10.833 249.086 32.613C248.035 36.256 247.523 39.925 247.482 43.54C225.563 47.955 206.793 64.112 200.168 87.08C194.217 107.714 199.484 128.919 212.36 144.19C210.696 147.197 209.329 150.427 208.336 153.87C201.205 178.596 215.468 204.421 240.194 211.552C248.347 213.904 256.616 213.916 264.299 212.007C273.389 224.54 286.555 234.258 302.584 238.881C323.21 244.83 344.321 241.13 361.125 230.466C368.646 247.96 374.829 274.198 361.522 299.928C409.866 295.186 444.778 248.815 437.663 206.331C451.458 199.983 462.525 187.909 467.064 172.172Z" fill="#EBEBEB"/>
<path d="M374.317 290.332C374.056 290.332 373.802 290.23 373.611 290.041C373.353 289.784 373.255 289.406 373.356 289.056C380.166 265.339 373.96 242.6 367.555 227.701L364.31 220.154L357.373 224.556C346.899 231.202 334.855 234.716 322.544 234.716C316.478 234.716 310.415 233.855 304.523 232.156C290.489 228.108 278.54 219.719 269.965 207.896L267.193 204.074L262.611 205.214C255.893 206.884 248.82 206.752 242.135 204.826C231.973 201.895 223.561 195.182 218.446 185.924C213.333 176.665 212.131 165.971 215.062 155.809C215.881 152.972 217.033 150.203 218.485 147.579L220.819 143.361L217.712 139.676C205.848 125.607 201.803 106.669 206.894 89.0191C212.592 69.2651 228.674 54.4681 248.865 50.4021L254.418 49.2841L254.482 43.6191C254.517 40.5421 254.964 37.4921 255.812 34.5531C259.993 20.0561 273.437 9.93106 288.505 9.93106C291.688 9.93106 294.869 10.3831 297.959 11.2751C303.732 12.9401 308.972 16.1111 313.111 20.4451L317.351 24.8831L322.306 21.2601C334.821 12.1031 350.193 7.06006 365.589 7.06006C372.427 7.06006 379.262 8.03106 385.903 9.94606C413.649 17.9491 434.162 41.6201 438.162 70.2501L438.726 74.2911L442.521 75.7921C461.522 83.3021 471.576 103.789 465.906 123.448C464.701 127.625 462.826 131.552 460.333 135.12L458.269 138.074L459.474 141.471C462.779 150.785 463.078 160.73 460.337 170.234C456.541 183.393 447.209 194.233 434.735 199.973L429.873 202.21L430.757 207.488C433.793 225.617 428.332 245.419 415.774 261.818C405.314 275.475 390.691 285.588 374.597 290.293C374.505 290.319 374.411 290.332 374.317 290.332ZM364.766 217.681C364.865 217.681 364.965 217.696 365.061 217.726C365.341 217.812 365.568 218.017 365.684 218.287L369.392 226.912C375.768 241.742 381.944 264.205 375.762 287.846C390.768 283.057 404.36 273.434 414.187 260.602C426.41 244.642 431.731 225.403 428.786 207.819L427.776 201.787C427.701 201.342 427.934 200.902 428.344 200.714L433.9 198.157C445.846 192.659 454.781 182.28 458.416 169.679C461.04 160.579 460.754 151.057 457.59 142.139L456.213 138.257C456.105 137.953 456.15 137.615 456.335 137.351L458.693 133.975C461.06 130.586 462.84 126.858 463.984 122.893C469.367 104.23 459.823 84.7801 441.785 77.6511L437.448 75.9361C437.113 75.8041 436.875 75.5011 436.826 75.1451L436.181 70.5271C432.289 42.6771 412.336 19.6521 385.348 11.8681C378.887 10.0051 372.238 9.06006 365.588 9.06006C350.613 9.06006 335.661 13.9661 323.485 22.8741L317.823 27.0161C317.418 27.3131 316.856 27.2621 316.51 26.9001L311.664 21.8281C307.768 17.7501 302.837 14.7661 297.403 13.1991C294.493 12.3591 291.499 11.9331 288.504 11.9331C274.322 11.9331 261.669 21.4631 257.733 35.1101C256.935 37.8761 256.514 40.7471 256.482 43.6441L256.409 50.1181C256.404 50.5901 256.069 50.9931 255.606 51.0871L249.259 52.3651C229.803 56.2831 214.306 70.5421 208.816 89.5761C203.911 106.583 207.809 124.831 219.242 138.39L222.793 142.601C223.06 142.917 223.104 143.367 222.903 143.73L220.236 148.55C218.856 151.042 217.762 153.672 216.985 156.365C214.202 166.012 215.343 176.168 220.198 184.959C225.053 193.75 233.041 200.124 242.689 202.906C249.038 204.736 255.752 204.86 262.129 203.274L267.366 201.972C267.76 201.871 268.177 202.024 268.417 202.356L271.585 206.724C279.896 218.182 291.477 226.313 305.078 230.236C310.79 231.884 316.666 232.718 322.545 232.718C334.476 232.718 346.149 229.312 356.302 222.868L364.23 217.838C364.392 217.733 364.578 217.681 364.766 217.681Z" fill="white"/>
<path d="M304.191 124.189L277.387 120.016L277.804 117.336C278.514 112.775 279.607 109.152 281.085 106.468C282.563 103.784 284.507 101.426 286.919 99.392C289.33 97.36 294.571 93.937 302.642 89.126C306.935 86.614 309.281 84.067 309.684 81.481C310.087 78.895 309.635 76.766 308.331 75.093C307.026 73.42 304.822 72.343 301.718 71.859C298.379 71.339 295.444 72.015 292.914 73.883C290.383 75.753 288.383 79.391 286.915 84.799L260.074 77.152C262.581 67.235 267.497 59.704 274.826 54.561C282.153 49.415 292.4 47.868 305.567 49.918C315.818 51.514 323.761 54.943 329.396 60.203C337.054 67.318 340.132 75.698 338.632 85.336C338.009 89.335 336.304 93.018 333.515 96.389C330.726 99.76 325.506 103.595 317.853 107.893C312.517 110.917 309.049 113.47 307.448 115.557C305.847 117.644 304.762 120.521 304.191 124.189ZM275.36 126.998L304.068 131.467L300.126 156.789L271.418 152.32L275.36 126.998Z" fill="white"/>
<path d="M372.593 163.424L357.711 151.369L358.916 149.881C360.967 147.348 362.92 145.525 364.774 144.411C366.628 143.296 368.651 142.547 370.845 142.161C373.038 141.776 377.451 141.545 384.084 141.471C387.595 141.46 389.931 140.738 391.094 139.302C392.257 137.866 392.737 136.406 392.534 134.923C392.331 133.439 391.367 131.999 389.644 130.603C387.79 129.101 385.759 128.473 383.552 128.716C381.344 128.96 378.833 130.471 376.019 133.252L362.347 119.064C367.394 113.9 373.067 111.047 379.365 110.506C385.663 109.964 392.466 112.654 399.776 118.575C405.467 123.185 409.099 128.096 410.674 133.305C412.825 140.364 411.731 146.572 407.397 151.923C405.599 154.143 403.251 155.786 400.353 156.855C397.455 157.924 392.908 158.413 386.712 158.322C382.382 158.275 379.36 158.603 377.643 159.31C375.925 160.017 374.242 161.388 372.593 163.424ZM353.997 154.913L369.936 167.824L358.548 181.883L342.609 168.972L353.997 154.913Z" fill="white"/>
<path d="M376.753 76.804L370.312 68.009L371.191 67.365C372.688 66.269 374.027 65.549 375.209 65.204C376.391 64.86 377.614 64.741 378.877 64.847C380.14 64.953 382.602 65.467 386.264 66.389C388.198 66.893 389.589 66.834 390.437 66.213C391.286 65.592 391.762 64.858 391.865 64.012C391.968 63.166 391.647 62.234 390.901 61.215C390.099 60.119 389.072 59.478 387.822 59.292C386.571 59.106 384.97 59.573 383.017 60.695L377.551 50.901C381.079 48.791 384.615 48.044 388.16 48.661C391.705 49.277 395.059 51.745 398.223 56.065C400.687 59.429 401.973 62.659 402.083 65.755C402.242 69.953 400.739 73.211 397.577 75.527C396.265 76.488 394.734 77.052 392.984 77.219C391.234 77.386 388.66 76.996 385.263 76.046C382.887 75.392 381.175 75.134 380.128 75.273C379.082 75.412 377.957 75.923 376.753 76.804ZM367.754 69.42L374.653 78.84L366.344 84.925L359.445 75.505L367.754 69.42Z" fill="white"/>
<path d="M128.335 201.574C120.066 201.574 111.748 199.309 104.376 194.916C94.229 188.869 87.058 179.496 84.622 169.131C76.385 168.538 68.796 164.493 63.729 157.972C60.063 153.254 57.968 147.627 57.656 141.675C55.482 140.197 53.563 138.397 51.949 136.32C44.062 126.17 45.053 111.921 54.198 102.984C50.385 86.727 56.396 69.671 69.589 59.42C79.938 51.377 93.12 48.5521 105.86 51.6221C107.342 48.2461 109.653 45.2781 112.574 43.0091C117.268 39.3621 123.102 37.761 129.001 38.499C134.9 39.239 140.157 42.2321 143.805 46.9271C144.904 48.3421 145.829 49.8871 146.56 51.5271C158.594 49.557 170.643 54.26 178.135 63.9021C184.835 72.5231 186.852 83.8241 183.578 94.2321C184.889 95.3521 186.079 96.595 187.12 97.936C195.632 108.89 193.645 124.728 182.691 133.241C179.346 135.841 175.389 137.555 171.216 138.218C169.037 146.379 164.365 153.425 157.68 158.619C149.241 165.178 138.434 167.915 127.892 166.197C127.786 175.912 130.044 189.082 140.917 198.498C141.134 198.686 141.231 198.977 141.17 199.259C141.108 199.54 140.898 199.765 140.622 199.845C136.624 201.003 132.485 201.573 128.335 201.574ZM95.727 51.9811C86.695 51.9811 77.885 54.96 70.552 60.658C57.728 70.624 51.949 87.263 55.829 103.051C55.896 103.325 55.811 103.615 55.605 103.81C46.745 112.165 45.706 125.729 53.188 135.358C54.778 137.404 56.684 139.164 58.852 140.587C59.064 140.727 59.196 140.959 59.206 141.213C59.43 146.983 61.423 152.445 64.969 157.009C69.878 163.326 77.288 167.187 85.299 167.601C85.653 167.619 85.95 167.871 86.025 168.217C88.234 178.39 95.216 187.63 105.18 193.569C115.456 199.694 127.632 201.537 138.809 198.712C128.078 188.675 126.084 175.053 126.341 165.246C126.347 165.016 126.454 164.801 126.633 164.656C126.812 164.512 127.044 164.455 127.271 164.495C137.658 166.446 148.39 163.852 156.719 157.382C163.263 152.296 167.797 145.361 169.828 137.326C169.907 137.015 170.165 136.784 170.482 136.741C174.574 136.179 178.463 134.542 181.729 132.004C192 124.022 193.863 109.172 185.882 98.9001C184.804 97.5131 183.557 96.235 182.173 95.103C181.921 94.897 181.823 94.5571 181.925 94.2491C185.264 84.1981 183.385 73.215 176.897 64.866C169.637 55.523 157.886 51.0481 146.226 53.1781C145.861 53.2451 145.501 53.0471 145.359 52.7051C144.647 50.9781 143.708 49.358 142.567 47.89C139.176 43.527 134.29 40.744 128.807 40.057C123.324 39.365 117.901 40.8581 113.538 44.2481C110.655 46.4891 108.412 49.46 107.051 52.84C106.904 53.205 106.506 53.404 106.128 53.307C102.675 52.418 99.184 51.9811 95.727 51.9811Z" fill="#E6E6E6"/>
<path d="M100.595 117.957L86.782 121.209L86.457 119.828C85.904 117.477 85.721 115.506 85.909 113.915C86.097 112.323 86.576 110.798 87.344 109.337C88.113 107.877 89.979 105.187 92.945 101.267C94.531 99.205 95.167 97.5081 94.854 96.1761C94.54 94.8431 93.903 93.9001 92.941 93.3461C91.979 92.7921 90.699 92.7031 89.099 93.0801C87.378 93.4851 86.089 94.39 85.23 95.794C84.371 97.199 84.118 99.3551 84.471 102.265L69.956 103.841C69.22 98.5411 70.121 93.923 72.661 89.988C75.2 86.052 79.862 83.2861 86.648 81.6881C91.931 80.4441 96.456 80.5431 100.222 81.9841C105.334 83.9261 108.475 87.382 109.645 92.349C110.13 94.41 110.028 96.53 109.34 98.713C108.652 100.896 106.876 103.782 104.012 107.371C102.021 109.887 100.842 111.807 100.477 113.133C100.11 114.458 100.15 116.067 100.595 117.957ZM87.173 124.992L101.967 121.509L105.039 134.558L90.244 138.041L87.173 124.992Z" fill="#EBEBEB"/>
<path d="M135.753 88.788L126.168 85.874L126.459 84.916C126.955 83.285 127.542 82.017 128.222 81.112C128.901 80.207 129.735 79.446 130.722 78.827C131.709 78.209 133.803 77.229 137.003 75.887C138.703 75.191 139.693 74.381 139.974 73.456C140.255 72.531 140.201 71.729 139.81 71.05C139.419 70.371 138.669 69.862 137.559 69.525C136.365 69.162 135.257 69.257 134.235 69.809C133.213 70.362 132.293 71.588 131.476 73.49L122.057 69.303C123.487 65.807 125.675 63.307 128.622 61.806C131.568 60.304 135.395 60.269 140.104 61.701C143.77 62.816 146.497 64.481 148.285 66.696C150.717 69.695 151.408 72.918 150.36 76.365C149.925 77.795 149.111 79.053 147.917 80.142C146.722 81.23 144.615 82.362 141.594 83.538C139.486 84.367 138.086 85.121 137.392 85.802C136.698 86.48 136.152 87.476 135.753 88.788ZM125.065 88.322L135.331 91.443L132.578 100.498L122.312 97.377L125.065 88.322Z" fill="#EBEBEB"/>
<path d="M250 405.561C357.082 405.561 443.889 400.492 443.889 394.238C443.889 387.985 357.082 382.915 250 382.915C142.918 382.915 56.111 387.985 56.111 394.238C56.111 400.492 142.918 405.561 250 405.561Z" fill="#F5F5F5"/>
<path d="M157.612 225.439L156.691 225.048C157.518 223.094 157.994 221.473 158.145 220.093L159.139 220.202C158.977 221.681 158.477 223.393 157.612 225.439ZM157.219 213.983C155.279 209.72 151.672 207.032 146.788 206.209L146.954 205.223C152.18 206.104 156.044 208.991 158.129 213.57L157.219 213.983Z" fill="#6C60F4"/>
<path d="M151.983 235.497L142.144 239.976L141.696 238.992C140.934 237.318 140.505 235.872 140.409 234.655C140.313 233.438 140.445 232.227 140.802 231.022C141.16 229.818 142.156 227.53 143.789 224.161C144.668 222.385 144.892 221.023 144.46 220.074C144.028 219.125 143.411 218.515 142.611 218.243C141.81 217.972 140.84 218.095 139.701 218.614C138.475 219.172 137.646 220.039 137.213 221.216C136.78 222.393 136.91 224.042 137.606 226.164L126.995 229.494C125.658 225.643 125.647 222.059 126.961 218.742C128.274 215.425 131.347 212.666 136.18 210.466C139.943 208.753 143.338 208.156 146.366 208.673C150.474 209.365 153.333 211.482 154.944 215.019C155.612 216.487 155.851 218.087 155.66 219.82C155.469 221.553 154.571 223.973 152.964 227.08C151.849 229.255 151.253 230.865 151.178 231.91C151.102 232.955 151.37 234.15 151.983 235.497ZM142.999 242.744L153.536 237.947L157.767 247.241L147.23 252.038L142.999 242.744Z" fill="#6C60F4"/>
<path d="M127.641 257.732L122.636 264.526L121.957 264.026C120.801 263.174 119.959 262.352 119.431 261.558C118.903 260.764 118.532 259.889 118.318 258.931C118.104 257.974 117.913 256.036 117.747 253.117C117.671 251.572 117.306 250.558 116.65 250.075C115.994 249.592 115.342 249.41 114.693 249.53C114.044 249.65 113.43 250.103 112.85 250.889C112.227 251.735 111.991 252.642 112.143 253.609C112.295 254.576 113.011 255.651 114.292 256.833L108.323 263.138C105.948 261.021 104.577 258.581 104.212 255.82C103.846 253.059 104.893 250.009 107.351 246.672C109.265 244.073 111.353 242.375 113.615 241.577C116.679 240.488 119.433 240.843 121.876 242.643C122.89 243.39 123.66 244.39 124.19 245.644C124.719 246.898 125.026 248.89 125.112 251.619C125.179 253.526 125.385 254.85 125.73 255.591C126.073 256.333 126.711 257.047 127.641 257.732ZM124.27 266.089L129.631 258.812L136.05 263.54L130.689 270.817L124.27 266.089Z" fill="#6C60F4"/>
<path d="M234.088 390.636C232.465 390.636 230.898 389.752 230.101 388.211C226.082 380.448 221.034 371.339 211.947 361.479C210.884 360.327 210.501 358.703 210.935 357.197C214.309 345.486 219.606 329.478 219.659 329.318C220.438 326.964 222.976 325.692 225.327 326.47C227.679 327.248 228.954 329.786 228.175 332.138C228.126 332.286 223.564 346.076 220.252 357.294C228.604 366.767 233.753 375.752 238.068 384.088C239.207 386.287 238.347 388.994 236.147 390.133C235.487 390.475 234.783 390.636 234.088 390.636Z" fill="#6C60F4"/>
<path d="M241.56 394.238H206.772L225.208 383.781L240.663 384.379L241.56 394.238Z" fill="#263238"/>
<path d="M238.219 352.12C254.056 347.17 263.57 332.519 259.468 319.395C255.367 306.271 239.203 299.644 223.366 304.593C207.53 309.542 198.016 324.194 202.118 337.318C206.219 350.442 222.383 357.069 238.219 352.12Z" fill="#263238"/>
<path d="M151.653 311.981C149.893 311.982 148.222 310.939 147.507 309.211C146.559 306.922 147.646 304.298 149.934 303.35C152.539 302.271 152.902 299.607 152.904 299.58C153.092 297.575 154.593 295.941 156.574 295.585C157.643 295.392 158.676 295.09 159.871 294.74C165.949 292.965 173.475 290.763 197.18 297.402C220.561 284.326 220.827 259.805 220.827 258.747C220.826 256.275 222.825 254.262 225.297 254.253C225.302 254.253 225.307 254.253 225.313 254.253C227.778 254.253 229.782 256.235 229.798 258.702C229.807 260.005 229.661 290.785 199.756 306.201C198.737 306.726 197.558 306.844 196.456 306.523C173.861 299.998 167.499 301.857 162.388 303.351C161.935 303.483 161.476 303.618 161.008 303.747C159.901 306.594 157.597 309.885 153.367 311.638C152.807 311.872 152.225 311.981 151.653 311.981Z" fill="#263238"/>
<path d="M204.081 279.891C195.575 246.066 172.897 158.83 245.548 153.497C310.726 148.712 328.615 235.467 332.963 265.523C335.497 283.04 336.349 298.927 336.497 311.342C336.688 327.357 325.437 341.167 309.742 344.355C274.231 351.567 240.626 352.593 217.993 343.66C211.873 341.244 208.172 335.008 208.76 328.455C209.632 318.738 209.648 302.028 204.081 279.891Z" fill="#6C60F4"/>
<path opacity="0.1" d="M332.96 265.52C328.863 237.196 312.739 158.478 256.3 153.556C249.732 152.983 243.251 156.216 240.226 162.073C237.708 166.949 237.789 172.864 241.561 178.709C254 198 283.665 264.67 279.185 301C277.145 317.53 266.778 330.728 275.8 349.31C286.69 348.41 298.11 346.72 309.74 344.35C325.44 341.17 336.69 327.36 336.5 311.34C336.35 298.93 335.5 283.04 332.96 265.52Z" fill="black"/>
<path d="M323.239 311.79C322.994 311.79 322.793 311.593 322.79 311.347C322.605 295.895 321.418 280.498 319.261 265.587C308.462 190.935 279.386 153.179 235.164 156.437C234.923 156.466 234.702 156.27 234.684 156.023C234.666 155.776 234.851 155.56 235.099 155.543C279.851 152.242 309.272 190.266 320.149 265.459C322.312 280.409 323.503 295.846 323.688 311.338C323.691 311.585 323.492 311.788 323.245 311.791C323.243 311.79 323.241 311.79 323.239 311.79Z" fill="#263238"/>
<path d="M322.551 354.515C338.388 349.566 347.901 334.915 343.799 321.791C339.698 308.667 323.535 302.04 307.698 306.989C291.861 311.938 282.348 326.59 286.449 339.714C290.551 352.838 306.714 359.465 322.551 354.515Z" fill="#263238"/>
<path d="M325.295 390.636C323.672 390.636 322.105 389.752 321.308 388.211C317.29 380.448 312.241 371.34 303.154 361.479C302.092 360.326 301.709 358.703 302.143 357.197C305.517 345.486 310.814 329.478 310.867 329.318C311.646 326.965 314.18 325.686 316.535 326.47C318.887 327.248 320.162 329.786 319.383 332.138C319.334 332.286 314.772 346.076 311.46 357.294C319.812 366.767 324.961 375.752 329.275 384.088C330.414 386.287 329.554 388.994 327.354 390.133C326.694 390.475 325.99 390.636 325.295 390.636Z" fill="#6C60F4"/>
<path d="M315.876 253.906C314.262 253.906 312.703 253.033 311.9 251.505C310.751 249.315 311.59 246.609 313.775 245.454C314.64 244.994 334.17 234.319 339.653 208.684C326.632 203.239 303.23 190.946 298.113 184.767C297.617 184.168 297.286 183.452 297.151 182.686C297.031 182.011 296.19 176.707 298.152 171.684L295.79 167.122C294.651 164.922 295.511 162.216 297.711 161.076C299.911 159.94 302.618 160.797 303.757 162.997L307.155 169.56C307.882 170.963 307.816 172.645 306.983 173.988C305.91 175.718 305.777 178.25 305.864 179.9C311.627 185.106 334.904 197.443 346.291 201.67C348.289 202.411 349.489 204.456 349.163 206.562C344.091 239.329 319.023 252.833 317.958 253.391C317.292 253.741 316.579 253.906 315.876 253.906Z" fill="#263238"/>
<path d="M301.566 184.149C301.145 184.149 300.72 184.031 300.341 183.784C299.304 183.106 299.013 181.717 299.691 180.68C299.846 180.443 303.554 174.85 309.194 173.339C310.389 173.016 311.621 173.729 311.941 174.925C312.261 176.121 311.551 177.351 310.355 177.671C306.416 178.727 303.475 183.089 303.446 183.133C303.015 183.791 302.298 184.149 301.566 184.149Z" fill="#263238"/>
<path d="M332.768 394.238H297.979L316.415 383.781L331.871 384.379L332.768 394.238Z" fill="#263238"/>
<path d="M259.917 260.256C273.078 259.091 282.897 248.544 281.848 236.699C280.799 224.855 269.28 216.197 256.119 217.362C242.958 218.528 233.14 229.075 234.188 240.919C235.237 252.764 246.756 261.422 259.917 260.256Z" fill="white"/>
<path d="M258.498 239.115C260.308 245.466 258.944 251.421 255.453 252.416C251.961 253.411 247.664 249.069 245.854 242.718C244.044 236.367 245.408 230.412 248.899 229.417C252.39 228.422 256.689 232.764 258.498 239.115Z" fill="#263238"/>
<path d="M230.795 242.86C245.897 240.916 275.8 232.394 280.734 228.955C276.846 217.592 258.775 207.873 242.606 213.347C228.032 218.282 230.795 242.86 230.795 242.86Z" fill="#263238"/>
<path d="M233.734 250.16C252.476 246.598 276.848 240.617 283.818 236.785C283.388 249.013 279.838 261.4 260.699 265.587C245.062 269.008 233.734 250.16 233.734 250.16Z" fill="#263238"/>
<path d="M218.292 261.909C225.072 257.423 225.966 246.832 220.29 238.253C214.614 229.674 204.516 226.355 197.736 230.841C190.957 235.326 190.062 245.917 195.739 254.497C201.415 263.076 211.512 266.394 218.292 261.909Z" fill="white"/>
<path d="M208.337 246.68C209.474 252.037 208.492 256.506 206.144 256.662C203.795 256.817 200.969 252.601 199.831 247.243C198.694 241.886 199.675 237.417 202.024 237.261C204.373 237.106 207.2 241.322 208.337 246.68Z" fill="#263238"/>
<path d="M189.748 244.628C199.88 245.824 219.998 244.49 223.341 242.661C220.871 232.958 208.887 221.989 197.999 223.396C188.185 224.664 189.748 244.628 189.748 244.628Z" fill="#263238"/>
<path d="M191.63 250.942C204.218 251.515 220.603 251.193 225.314 249.421C224.884 259.027 222.363 268.193 209.502 268.043C198.994 267.919 191.63 250.942 191.63 250.942Z" fill="#263238"/>
<path d="M264.088 207.3C245.203 207.3 232.646 197.97 232.029 197.502C230.055 196.005 229.669 193.191 231.165 191.217C232.66 189.248 235.466 188.86 237.438 190.346C237.655 190.505 252.571 201.382 273.276 197.457C275.712 197 278.058 198.596 278.519 201.028C278.98 203.463 277.381 205.809 274.948 206.271C271.145 206.993 267.511 207.3 264.088 207.3Z" fill="#263238"/>
<path d="M183.878 199.566C183.374 199.567 182.862 199.481 182.361 199.301C180.03 198.463 178.819 195.894 179.656 193.563C182.034 186.944 185.977 182.646 191.376 180.789C201.163 177.418 211.703 183.972 212.147 184.253C214.242 185.576 214.867 188.347 213.544 190.441C212.223 192.53 209.461 193.159 207.368 191.845C205.326 190.574 198.994 187.64 194.268 189.281C191.545 190.227 189.527 192.621 188.099 196.595C187.442 198.427 185.717 199.566 183.878 199.566Z" fill="#263238"/>
<path d="M219.231 275.246C219.107 275.246 218.982 275.229 218.857 275.192C218.15 274.986 217.738 274.259 217.936 273.549C217.97 273.427 218.813 270.522 222.498 268.62C227.644 265.967 235.486 266.516 245.807 270.252C246.506 270.505 246.868 271.277 246.614 271.976C246.361 272.676 245.589 273.039 244.891 272.784C233.057 268.497 226.914 269.424 223.843 270.957C221.162 272.295 220.549 274.206 220.525 274.287C220.346 274.867 219.81 275.246 219.231 275.246Z" fill="#263238"/>
<path d="M176.882 270.32C150.781 272.664 132.096 283.471 132.096 283.471C139.825 282.011 167.451 316.198 174.554 342.565C187.656 337.706 202.936 334.398 219.232 331.814C209.362 304.637 191.313 273.852 176.882 270.32Z" fill="#6C60F4"/>
<path opacity="0.6" d="M176.882 270.32C150.781 272.664 132.096 283.471 132.096 283.471C139.825 282.011 167.451 316.198 174.554 342.565C187.656 337.706 202.936 334.398 219.232 331.814C209.362 304.637 191.313 273.852 176.882 270.32Z" fill="white"/>
<path d="M176.882 270.32C159.802 268.392 132.071 282.692 132.071 282.692C127.158 285.825 128.491 291.703 131.172 294.182C133.744 290.491 162.405 280.888 173.179 279.6C167.817 274.64 172.798 271.043 176.882 270.32Z" fill="#6C60F4"/>
<path opacity="0.2" d="M176.882 270.32C159.802 268.392 132.071 282.692 132.071 282.692C127.158 285.825 128.491 291.703 131.172 294.182C133.744 290.491 162.405 280.888 173.179 279.6C167.817 274.64 172.798 271.043 176.882 270.32Z" fill="white"/>
<path d="M151.656 311.981C150.191 311.981 148.756 311.264 147.895 309.946C144.642 304.962 146.674 297.356 147.114 295.883C147.823 293.509 150.321 292.16 152.696 292.869C155.067 293.577 156.416 296.071 155.712 298.442C154.979 300.952 154.83 304.159 155.407 305.044C156.761 307.118 156.177 309.898 154.102 311.252C153.346 311.745 152.496 311.981 151.656 311.981Z" fill="#263238"/>
</svg>
